<?xml version="1.0" encoding="UTF-8" standalone="no"?>
<!-- Created with Inkscape (http://www.inkscape.org/) -->

<svg
   xmlns:dc="http://purl.org/dc/elements/1.1/"
   xmlns:cc="http://creativecommons.org/ns#"
   xmlns:rdf="http://www.w3.org/1999/02/22-rdf-syntax-ns#"
   xmlns:svg="http://www.w3.org/2000/svg"
   xmlns="http://www.w3.org/2000/svg"
   xmlns:sodipodi="http://sodipodi.sourceforge.net/DTD/sodipodi-0.dtd"
   xmlns:inkscape="http://www.inkscape.org/namespaces/inkscape"
   width="359.46396"
   height="185.89726"
   id="svg3940"
   version="1.1"
   inkscape:version="0.48.4 r9939"
   sodipodi:docname="bdcond_simplefefct.svg">
  <defs
     id="defs3942">
    <marker
       inkscape:stockid="Arrow2Lend"
       orient="auto"
       refY="0"
       refX="0"
       id="Arrow2Lend"
       style="overflow:visible">
      <path
         id="path4505"
         style="fill-rule:evenodd;stroke-width:0.625;stroke-linejoin:round"
         d="M 8.7185878,4.0337352 -2.2072895,0.01601326 8.7185884,-4.0017078 c -1.7454984,2.3720609 -1.7354408,5.6174519 -6e-7,8.035443 z"
         transform="matrix(-1.1,0,0,-1.1,-1.1,0)"
         inkscape:connector-curvature="0" />
    </marker>
    <marker
       inkscape:stockid="Arrow2Lstart"
       orient="auto"
       refY="0"
       refX="0"
       id="Arrow2Lstart"
       style="overflow:visible">
      <path
         id="path4502"
         style="fill-rule:evenodd;stroke-width:0.625;stroke-linejoin:round"
         d="M 8.7185878,4.0337352 -2.2072895,0.01601326 8.7185884,-4.0017078 c -1.7454984,2.3720609 -1.7354408,5.6174519 -6e-7,8.035443 z"
         transform="matrix(1.1,0,0,1.1,1.1,0)"
         inkscape:connector-curvature="0" />
    </marker>
  </defs>
  <sodipodi:namedview
     id="base"
     pagecolor="#ffffff"
     bordercolor="#666666"
     borderopacity="1.0"
     inkscape:pageopacity="0.0"
     inkscape:pageshadow="2"
     inkscape:zoom="3.3941125"
     inkscape:cx="201.98029"
     inkscape:cy="151.57324"
     inkscape:current-layer="layer1"
     inkscape:document-units="px"
     showgrid="true"
     inkscape:snap-bbox="true"
     inkscape:object-nodes="true"
     inkscape:snap-object-midpoints="true"
     fit-margin-top="0"
     fit-margin-left="0"
     fit-margin-right="0"
     fit-margin-bottom="0"
     inkscape:window-width="1400"
     inkscape:window-height="988"
     inkscape:window-x="-8"
     inkscape:window-y="-8"
     inkscape:window-maximized="1">
    <inkscape:grid
       type="xygrid"
       id="grid3948"
       empspacing="5"
       visible="true"
       enabled="true"
       snapvisiblegridlinesonly="true"
       spacingx="10px"
       spacingy="10px"
       originx="-90.571712px"
       originy="-265.46658px" />
  </sodipodi:namedview>
  <metadata
     id="metadata3945">
    <rdf:RDF>
      <cc:Work
         rdf:about="">
        <dc:format>image/svg+xml</dc:format>
        <dc:type
           rdf:resource="http://purl.org/dc/dcmitype/StillImage" />
        <dc:title></dc:title>
      </cc:Work>
    </rdf:RDF>
  </metadata>
  <g
     id="layer1"
     inkscape:label="Layer 1"
     inkscape:groupmode="layer"
     transform="translate(-90.571712,-148.63617)">
    <text
       xml:space="preserve"
       style="font-size:16px;font-style:normal;font-weight:normal;line-height:125%;letter-spacing:0px;word-spacing:0px;fill:#000000;fill-opacity:1;stroke:none;font-family:Times New Roman;-inkscape-font-specification:Times New Roman"
       x="90.321869"
       y="334.84735"
       id="text3958"
       sodipodi:linespacing="125%"
       transform="scale(1.0014989,0.99850337)"><tspan
         sodipodi:role="line"
         id="tspan3960"
         x="90.321869"
         y="334.84735">x0</tspan></text>
    <text
       xml:space="preserve"
       style="font-size:16px;font-style:normal;font-weight:normal;line-height:125%;letter-spacing:0px;word-spacing:0px;fill:#000000;fill-opacity:1;stroke:none;font-family:Times New Roman;-inkscape-font-specification:Times New Roman"
       x="194.95404"
       y="334.84735"
       id="text3962"
       sodipodi:linespacing="125%"
       transform="scale(1.0014989,0.99850335)"><tspan
         sodipodi:role="line"
         id="tspan3964"
         x="194.95404"
         y="334.84735">x1</tspan></text>
    <text
       xml:space="preserve"
       style="font-size:16px;font-style:normal;font-weight:normal;line-height:125%;letter-spacing:0px;word-spacing:0px;fill:#000000;fill-opacity:1;stroke:none;font-family:Times New Roman;-inkscape-font-specification:Times New Roman"
       x="415.41275"
       y="334.84735"
       id="text3966"
       sodipodi:linespacing="125%"
       transform="scale(1.0014989,0.99850337)"><tspan
         sodipodi:role="line"
         id="tspan3968"
         x="415.41275"
         y="334.84735">x3</tspan></text>
    <path
       style="fill:none;stroke:#000000;stroke-width:4;stroke-linecap:butt;stroke-linejoin:miter;stroke-opacity:1"
       d="m 95.998014,312.26636 325.578136,0"
       id="path3950"
       inkscape:connector-curvature="0" />
    <path
       sodipodi:type="arc"
       style="fill:#000000;fill-opacity:1;stroke:none"
       id="path3952"
       sodipodi:cx="100"
       sodipodi:cy="300"
       sodipodi:rx="10"
       sodipodi:ry="10"
       d="m 110,300 c 0,5.52285 -4.47715,10 -10,10 -5.522847,0 -10,-4.47715 -10,-10 0,-5.52285 4.477153,-10 10,-10 5.52285,0 10,4.47715 10,10 z"
       transform="matrix(0.54263023,0,0,0.54100722,41.734991,149.96419)" />
    <path
       sodipodi:type="arc"
       style="fill:#000000;fill-opacity:1;stroke:none"
       id="path3954"
       sodipodi:cx="400"
       sodipodi:cy="300"
       sodipodi:rx="10"
       sodipodi:ry="10"
       d="m 410,300 a 10,10 0 1 1 -20,0 10,10 0 1 1 20,0 z"
       transform="matrix(0.54263023,0,0,0.54100722,-16.265009,149.96419)" />
    <path
       sodipodi:type="arc"
       style="fill:#000000;fill-opacity:1;stroke:none"
       id="path3956"
       sodipodi:cx="700"
       sodipodi:cy="300"
       sodipodi:rx="10"
       sodipodi:ry="10"
       d="m 710,300 c 0,5.52285 -4.47715,10 -10,10 -5.52285,0 -10,-4.47715 -10,-10 0,-5.52285 4.47715,-10 10,-10 5.52285,0 10,4.47715 10,10 z"
       transform="matrix(0.54263023,0,0,0.54100722,41.734991,149.96419)" />
    <path
       style="fill:none;stroke:#000000;stroke-width:1px;stroke-linecap:butt;stroke-linejoin:miter;stroke-opacity:1;marker-start:url(#Arrow2Lstart);marker-end:url(#Arrow2Lend)"
       d="m 448.70766,312.26636 -27.13151,0 L 320,220.00001 l -120,-40 -104.001986,132.26635 0,-162.30217"
       id="path3970"
       inkscape:connector-curvature="0"
       sodipodi:nodetypes="cccccc" />
    <path
       sodipodi:type="arc"
       style="fill:#000000;fill-opacity:1;stroke:none"
       id="path5294"
       sodipodi:cx="405"
       sodipodi:cy="205"
       sodipodi:rx="5"
       sodipodi:ry="5"
       d="m 410,205 a 5,5 0 1 1 -10,0 5,5 0 1 1 10,0 z"
       transform="matrix(0.54263023,0,0,0.54100722,-19.765243,69.093532)" />
    <text
       xml:space="preserve"
       style="font-size:16px;font-style:normal;font-weight:normal;line-height:125%;letter-spacing:0px;word-spacing:0px;fill:#000000;fill-opacity:1;stroke:none;font-family:Times New Roman;-inkscape-font-specification:Times New Roman"
       x="210.53697"
       y="181.62436"
       id="text5296"
       sodipodi:linespacing="125%"
       transform="scale(1.0014989,0.99850335)"><tspan
         sodipodi:role="line"
         id="tspan5298"
         x="210.53697"
         y="181.62436">u1=u(x1)</tspan></text>
    <text
       transform="scale(1.0014989,0.99850335)"
       sodipodi:linespacing="125%"
       id="text5300"
       y="334.84735"
       x="314.7746"
       style="font-size:16px;font-style:normal;font-weight:normal;line-height:125%;letter-spacing:0px;word-spacing:0px;fill:#000000;fill-opacity:1;stroke:none;font-family:Times New Roman;-inkscape-font-specification:Times New Roman"
       xml:space="preserve"><tspan
         y="334.84735"
         x="314.7746"
         id="tspan5302"
         sodipodi:role="line">x2</tspan></text>
    <path
       transform="matrix(0.54263023,0,0,0.54100722,103.73499,149.96419)"
       d="m 410,300 a 10,10 0 1 1 -20,0 10,10 0 1 1 20,0 z"
       sodipodi:ry="10"
       sodipodi:rx="10"
       sodipodi:cy="300"
       sodipodi:cx="400"
       id="path5304"
       style="fill:#000000;fill-opacity:1;stroke:none"
       sodipodi:type="arc" />
    <path
       transform="matrix(0.54263023,0,0,0.54100722,100.23476,109.09353)"
       d="m 410,205 a 5,5 0 1 1 -10,0 5,5 0 1 1 10,0 z"
       sodipodi:ry="5"
       sodipodi:rx="5"
       sodipodi:cy="205"
       sodipodi:cx="405"
       id="path5306"
       style="fill:#000000;fill-opacity:1;stroke:none"
       sodipodi:type="arc" />
    <text
       transform="scale(1.0014989,0.99850335)"
       sodipodi:linespacing="125%"
       id="text5308"
       y="221.68431"
       x="330.35751"
       style="font-size:16px;font-style:normal;font-weight:normal;line-height:125%;letter-spacing:0px;word-spacing:0px;fill:#000000;fill-opacity:1;stroke:none;font-family:Times New Roman;-inkscape-font-specification:Times New Roman"
       xml:space="preserve"><tspan
         y="221.68431"
         x="330.35751"
         id="tspan5310"
         sodipodi:role="line">u2=u(x3)</tspan></text>
    <flowRoot
       xml:space="preserve"
       id="flowRoot5312"
       style="fill:black;stroke:none;stroke-opacity:1;stroke-width:1px;stroke-linejoin:miter;stroke-linecap:butt;fill-opacity:1;font-family:Times New Roman;font-style:normal;font-weight:normal;font-size:16px;line-height:125%;letter-spacing:0px;word-spacing:0px;-inkscape-font-specification:Times New Roman"><flowRegion
         id="flowRegion5314"><rect
           id="rect5316"
           width="117.85113"
           height="225.09566"
           x="202.70395"
           y="-22.109982" /></flowRegion><flowPara
         id="flowPara5318"></flowPara></flowRoot>  </g>
</svg>
