<?xml version="1.0" encoding="UTF-8" standalone="no"?>
<!-- Created with Inkscape (http://www.inkscape.org/) -->

<svg
   xmlns:dc="http://purl.org/dc/elements/1.1/"
   xmlns:cc="http://creativecommons.org/ns#"
   xmlns:rdf="http://www.w3.org/1999/02/22-rdf-syntax-ns#"
   xmlns:svg="http://www.w3.org/2000/svg"
   xmlns="http://www.w3.org/2000/svg"
   xmlns:sodipodi="http://sodipodi.sourceforge.net/DTD/sodipodi-0.dtd"
   xmlns:inkscape="http://www.inkscape.org/namespaces/inkscape"
   width="290"
   height="150"
   id="svg2"
   version="1.1"
   inkscape:version="0.48.4 r9939"
   sodipodi:docname="mesh_conformal.svg">
  <defs
     id="defs4" />
  <sodipodi:namedview
     id="base"
     pagecolor="#ffffff"
     bordercolor="#666666"
     borderopacity="1.0"
     inkscape:pageopacity="0.0"
     inkscape:pageshadow="2"
     inkscape:zoom="2.8"
     inkscape:cx="160.36998"
     inkscape:cy="73.230786"
     inkscape:document-units="px"
     inkscape:current-layer="layer1"
     showgrid="true"
     inkscape:object-nodes="true"
     showguides="true"
     inkscape:guide-bbox="true"
     inkscape:window-width="1400"
     inkscape:window-height="988"
     inkscape:window-x="-8"
     inkscape:window-y="-8"
     inkscape:window-maximized="1"
     inkscape:snap-object-midpoints="true"
     fit-margin-top="0"
     fit-margin-left="0"
     fit-margin-right="0"
     fit-margin-bottom="0">
    <inkscape:grid
       type="xygrid"
       id="grid2985"
       empspacing="5"
       visible="true"
       enabled="true"
       snapvisiblegridlinesonly="true"
       spacingx="10px"
       spacingy="10px"
       originx="-145px"
       originy="-555px" />
  </sodipodi:namedview>
  <metadata
     id="metadata7">
    <rdf:RDF>
      <cc:Work
         rdf:about="">
        <dc:format>image/svg+xml</dc:format>
        <dc:type
           rdf:resource="http://purl.org/dc/dcmitype/StillImage" />
        <dc:title></dc:title>
      </cc:Work>
    </rdf:RDF>
  </metadata>
  <g
     inkscape:label="Ebene 1"
     inkscape:groupmode="layer"
     id="layer1"
     transform="translate(-145,-347.36218)">
    <rect
       style="fill:none;stroke:#000000;stroke-width:2;stroke-miterlimit:4;stroke-dasharray:none"
       id="rect3853"
       width="70"
       height="70"
       x="150"
       y="352.36218" />
    <rect
       y="422.36218"
       x="150"
       height="70"
       width="70"
       id="rect3855"
       style="fill:none;stroke:#000000;stroke-width:2;stroke-miterlimit:4;stroke-dasharray:none" />
    <rect
       y="352.36218"
       x="220"
       height="70"
       width="70"
       id="rect3857"
       style="fill:none;stroke:#000000;stroke-width:2;stroke-miterlimit:4;stroke-dasharray:none" />
    <rect
       style="fill:none;stroke:#000000;stroke-width:2;stroke-miterlimit:4;stroke-dasharray:none"
       id="rect3859"
       width="70"
       height="70"
       x="220"
       y="422.36218" />
    <path
       style="fill:none;stroke:#000000;stroke-width:1.99999988;stroke-linecap:butt;stroke-linejoin:miter;stroke-miterlimit:4;stroke-opacity:1;stroke-dasharray:none"
       d="m 290,352.36218 69.33333,0 -69.33333,70 69.33333,0 0,-70"
       id="path3863"
       inkscape:connector-curvature="0" />
    <path
       style="fill:none;stroke:#000000;stroke-width:1.99999988;stroke-linecap:butt;stroke-linejoin:miter;stroke-miterlimit:4;stroke-opacity:1;stroke-dasharray:none"
       d="m 359.33333,422.36218 0,70 -69.33333,0"
       id="path3865"
       inkscape:connector-curvature="0" />
    <path
       style="fill:none;stroke:#000000;stroke-width:1.99999988;stroke-linecap:butt;stroke-linejoin:miter;stroke-miterlimit:4;stroke-opacity:1;stroke-dasharray:none"
       d="m 290,422.36218 69.33333,70"
       id="path3867"
       inkscape:connector-curvature="0" />
    <path
       style="fill:none;stroke:#000000;stroke-width:1.99999988;stroke-linecap:butt;stroke-linejoin:miter;stroke-miterlimit:4;stroke-opacity:1;stroke-dasharray:none"
       d="m 359.33335,352.36218 70.66667,0 0,140 -70.66667,0"
       id="path3869"
       inkscape:connector-curvature="0" />
    <path
       style="fill:none;stroke:#000000;stroke-width:1.99999988;stroke-linecap:butt;stroke-linejoin:bevel;stroke-miterlimit:4;stroke-opacity:1;stroke-dasharray:none"
       d="m 359.33335,422.36218 70.66667,0 -70.66667,-70"
       id="path3873"
       inkscape:connector-curvature="0" />
    <path
       style="fill:none;stroke:#000000;stroke-width:1.99999988;stroke-linecap:butt;stroke-linejoin:miter;stroke-miterlimit:4;stroke-opacity:1;stroke-dasharray:none"
       d="m 359.33335,492.36218 70.66667,-70"
       id="path3877"
       inkscape:connector-curvature="0" />
    <text
       xml:space="preserve"
       style="font-size:16px;font-style:normal;font-weight:normal;line-height:125%;letter-spacing:0px;word-spacing:0px;fill:#000000;fill-opacity:1;stroke:none;font-family:Times New Roman;-inkscape-font-specification:Times New Roman"
       x="174"
       y="392.36218"
       id="text3879"
       sodipodi:linespacing="125%"><tspan
         sodipodi:role="line"
         id="tspan3881"
         x="174"
         y="392.36218">Q1</tspan></text>
    <text
       sodipodi:linespacing="125%"
       id="text3883"
       y="462.36218"
       x="174"
       style="font-size:16px;font-style:normal;font-weight:normal;line-height:125%;letter-spacing:0px;word-spacing:0px;fill:#000000;fill-opacity:1;stroke:none;font-family:Times New Roman;-inkscape-font-specification:Times New Roman"
       xml:space="preserve"><tspan
         y="462.36218"
         x="174"
         id="tspan3885"
         sodipodi:role="line">Q1</tspan></text>
    <text
       sodipodi:linespacing="125%"
       id="text3887"
       y="392.36218"
       x="244"
       style="font-size:16px;font-style:normal;font-weight:normal;line-height:125%;letter-spacing:0px;word-spacing:0px;fill:#000000;fill-opacity:1;stroke:none;font-family:Times New Roman;-inkscape-font-specification:Times New Roman"
       xml:space="preserve"><tspan
         y="392.36218"
         x="244"
         id="tspan3889"
         sodipodi:role="line">Q1</tspan></text>
    <text
       xml:space="preserve"
       style="font-size:16px;font-style:normal;font-weight:normal;line-height:125%;letter-spacing:0px;word-spacing:0px;fill:#000000;fill-opacity:1;stroke:none;font-family:Times New Roman;-inkscape-font-specification:Times New Roman"
       x="244"
       y="462.36218"
       id="text3891"
       sodipodi:linespacing="125%"><tspan
         sodipodi:role="line"
         id="tspan3893"
         x="244"
         y="462.36218">Q1</tspan></text>
    <text
       xml:space="preserve"
       style="font-size:16px;font-style:normal;font-weight:normal;line-height:125%;letter-spacing:0px;word-spacing:0px;fill:#000000;fill-opacity:1;stroke:none;font-family:Times New Roman;-inkscape-font-specification:Times New Roman"
       x="303.64285"
       y="380.00504"
       id="text3895"
       sodipodi:linespacing="125%"><tspan
         sodipodi:role="line"
         id="tspan3897"
         x="303.64285"
         y="380.00504">P1</tspan></text>
    <text
       sodipodi:linespacing="125%"
       id="text3899"
       y="380.00504"
       x="400"
       style="font-size:16px;font-style:normal;font-weight:normal;line-height:125%;letter-spacing:0px;word-spacing:0px;fill:#000000;fill-opacity:1;stroke:none;font-family:Times New Roman;-inkscape-font-specification:Times New Roman"
       xml:space="preserve"><tspan
         y="380.00504"
         x="400"
         id="tspan3901"
         sodipodi:role="line">P1</tspan></text>
    <text
       sodipodi:linespacing="125%"
       id="text3903"
       y="472.36218"
       x="303.64285"
       style="font-size:16px;font-style:normal;font-weight:normal;line-height:125%;letter-spacing:0px;word-spacing:0px;fill:#000000;fill-opacity:1;stroke:none;font-family:Times New Roman;-inkscape-font-specification:Times New Roman"
       xml:space="preserve"><tspan
         y="472.36218"
         x="303.64285"
         id="tspan3905"
         sodipodi:role="line">P1</tspan></text>
    <text
       xml:space="preserve"
       style="font-size:16px;font-style:normal;font-weight:normal;line-height:125%;letter-spacing:0px;word-spacing:0px;fill:#000000;fill-opacity:1;stroke:none;font-family:Times New Roman;-inkscape-font-specification:Times New Roman"
       x="400"
       y="472.36218"
       id="text3907"
       sodipodi:linespacing="125%"><tspan
         sodipodi:role="line"
         id="tspan3909"
         x="400"
         y="472.36218">P1</tspan></text>
    <text
       xml:space="preserve"
       style="font-size:16px;font-style:normal;font-weight:normal;line-height:125%;letter-spacing:0px;word-spacing:0px;fill:#000000;fill-opacity:1;stroke:none;font-family:Times New Roman;-inkscape-font-specification:Times New Roman"
       x="330"
       y="452.36218"
       id="text3911"
       sodipodi:linespacing="125%"><tspan
         sodipodi:role="line"
         id="tspan3913"
         x="330"
         y="452.36218">P1</tspan></text>
    <text
       sodipodi:linespacing="125%"
       id="text3915"
       y="452.36218"
       x="370"
       style="font-size:16px;font-style:normal;font-weight:normal;line-height:125%;letter-spacing:0px;word-spacing:0px;fill:#000000;fill-opacity:1;stroke:none;font-family:Times New Roman;-inkscape-font-specification:Times New Roman"
       xml:space="preserve"><tspan
         y="452.36218"
         x="370"
         id="tspan3917"
         sodipodi:role="line">P1</tspan></text>
    <text
       sodipodi:linespacing="125%"
       id="text3919"
       y="402.36218"
       x="330"
       style="font-size:16px;font-style:normal;font-weight:normal;line-height:125%;letter-spacing:0px;word-spacing:0px;fill:#000000;fill-opacity:1;stroke:none;font-family:Times New Roman;-inkscape-font-specification:Times New Roman"
       xml:space="preserve"><tspan
         y="402.36218"
         x="330"
         id="tspan3921"
         sodipodi:role="line">P1</tspan></text>
    <text
       xml:space="preserve"
       style="font-size:16px;font-style:normal;font-weight:normal;line-height:125%;letter-spacing:0px;word-spacing:0px;fill:#000000;fill-opacity:1;stroke:none;font-family:Times New Roman;-inkscape-font-specification:Times New Roman"
       x="370"
       y="402.36218"
       id="text3923"
       sodipodi:linespacing="125%"><tspan
         sodipodi:role="line"
         id="tspan3925"
         x="370"
         y="402.36218">P1</tspan></text>
    <path
       sodipodi:type="arc"
       style="fill:#000000;stroke:none"
       id="path3927"
       sodipodi:cx="145"
       sodipodi:cy="347.36218"
       sodipodi:rx="5"
       sodipodi:ry="5"
       d="m 150,347.36218 c 0,2.76143 -2.23858,5 -5,5 -2.76142,0 -5,-2.23857 -5,-5 0,-2.76142 2.23858,-5 5,-5 2.76142,0 5,2.23858 5,5 z"
       transform="translate(5,5)" />
    <path
       transform="translate(75,5)"
       d="m 150,347.36218 c 0,2.76143 -2.23858,5 -5,5 -2.76142,0 -5,-2.23857 -5,-5 0,-2.76142 2.23858,-5 5,-5 2.76142,0 5,2.23858 5,5 z"
       sodipodi:ry="5"
       sodipodi:rx="5"
       sodipodi:cy="347.36218"
       sodipodi:cx="145"
       id="path3929"
       style="fill:#000000;stroke:none"
       sodipodi:type="arc" />
    <path
       sodipodi:type="arc"
       style="fill:#000000;stroke:none"
       id="path3931"
       sodipodi:cx="145"
       sodipodi:cy="347.36218"
       sodipodi:rx="5"
       sodipodi:ry="5"
       d="m 150,347.36218 c 0,2.76143 -2.23858,5 -5,5 -2.76142,0 -5,-2.23857 -5,-5 0,-2.76142 2.23858,-5 5,-5 2.76142,0 5,2.23858 5,5 z"
       transform="translate(145,5)" />
    <path
       transform="translate(75,5)"
       d="m 150,347.36218 c 0,2.76143 -2.23858,5 -5,5 -2.76142,0 -5,-2.23857 -5,-5 0,-2.76142 2.23858,-5 5,-5 2.76142,0 5,2.23858 5,5 z"
       sodipodi:ry="5"
       sodipodi:rx="5"
       sodipodi:cy="347.36218"
       sodipodi:cx="145"
       id="path3933"
       style="fill:#000000;stroke:none"
       sodipodi:type="arc" />
    <path
       sodipodi:type="arc"
       style="fill:#000000;stroke:none"
       id="path3935"
       sodipodi:cx="145"
       sodipodi:cy="347.36218"
       sodipodi:rx="5"
       sodipodi:ry="5"
       d="m 150,347.36218 c 0,2.76143 -2.23858,5 -5,5 -2.76142,0 -5,-2.23857 -5,-5 0,-2.76142 2.23858,-5 5,-5 2.76142,0 5,2.23858 5,5 z"
       transform="translate(75,5)" />
    <path
       transform="translate(215,5)"
       d="m 150,347.36218 c 0,2.76143 -2.23858,5 -5,5 -2.76142,0 -5,-2.23857 -5,-5 0,-2.76142 2.23858,-5 5,-5 2.76142,0 5,2.23858 5,5 z"
       sodipodi:ry="5"
       sodipodi:rx="5"
       sodipodi:cy="347.36218"
       sodipodi:cx="145"
       id="path3937"
       style="fill:#000000;stroke:none"
       sodipodi:type="arc" />
    <path
       sodipodi:type="arc"
       style="fill:#000000;stroke:none"
       id="path3939"
       sodipodi:cx="145"
       sodipodi:cy="347.36218"
       sodipodi:rx="5"
       sodipodi:ry="5"
       d="m 150,347.36218 c 0,2.76143 -2.23858,5 -5,5 -2.76142,0 -5,-2.23857 -5,-5 0,-2.76142 2.23858,-5 5,-5 2.76142,0 5,2.23858 5,5 z"
       transform="translate(285,5)" />
    <path
       transform="translate(5,75)"
       d="m 150,347.36218 c 0,2.76143 -2.23858,5 -5,5 -2.76142,0 -5,-2.23857 -5,-5 0,-2.76142 2.23858,-5 5,-5 2.76142,0 5,2.23858 5,5 z"
       sodipodi:ry="5"
       sodipodi:rx="5"
       sodipodi:cy="347.36218"
       sodipodi:cx="145"
       id="path3943"
       style="fill:#000000;stroke:none"
       sodipodi:type="arc" />
    <path
       sodipodi:type="arc"
       style="fill:#000000;stroke:none"
       id="path3945"
       sodipodi:cx="145"
       sodipodi:cy="347.36218"
       sodipodi:rx="5"
       sodipodi:ry="5"
       d="m 150,347.36218 c 0,2.76143 -2.23858,5 -5,5 -2.76142,0 -5,-2.23857 -5,-5 0,-2.76142 2.23858,-5 5,-5 2.76142,0 5,2.23858 5,5 z"
       transform="translate(75,75)" />
    <path
       transform="translate(145,75)"
       d="m 150,347.36218 c 0,2.76143 -2.23858,5 -5,5 -2.76142,0 -5,-2.23857 -5,-5 0,-2.76142 2.23858,-5 5,-5 2.76142,0 5,2.23858 5,5 z"
       sodipodi:ry="5"
       sodipodi:rx="5"
       sodipodi:cy="347.36218"
       sodipodi:cx="145"
       id="path3947"
       style="fill:#000000;stroke:none"
       sodipodi:type="arc" />
    <path
       sodipodi:type="arc"
       style="fill:#000000;stroke:none"
       id="path3949"
       sodipodi:cx="145"
       sodipodi:cy="347.36218"
       sodipodi:rx="5"
       sodipodi:ry="5"
       d="m 150,347.36218 c 0,2.76143 -2.23858,5 -5,5 -2.76142,0 -5,-2.23857 -5,-5 0,-2.76142 2.23858,-5 5,-5 2.76142,0 5,2.23858 5,5 z"
       transform="translate(75,75)" />
    <path
       transform="translate(75,75)"
       d="m 150,347.36218 c 0,2.76143 -2.23858,5 -5,5 -2.76142,0 -5,-2.23857 -5,-5 0,-2.76142 2.23858,-5 5,-5 2.76142,0 5,2.23858 5,5 z"
       sodipodi:ry="5"
       sodipodi:rx="5"
       sodipodi:cy="347.36218"
       sodipodi:cx="145"
       id="path3951"
       style="fill:#000000;stroke:none"
       sodipodi:type="arc" />
    <path
       sodipodi:type="arc"
       style="fill:#000000;stroke:none"
       id="path3953"
       sodipodi:cx="145"
       sodipodi:cy="347.36218"
       sodipodi:rx="5"
       sodipodi:ry="5"
       d="m 150,347.36218 c 0,2.76143 -2.23858,5 -5,5 -2.76142,0 -5,-2.23857 -5,-5 0,-2.76142 2.23858,-5 5,-5 2.76142,0 5,2.23858 5,5 z"
       transform="translate(215,75)" />
    <path
       transform="translate(285,75)"
       d="m 150,347.36218 c 0,2.76143 -2.23858,5 -5,5 -2.76142,0 -5,-2.23857 -5,-5 0,-2.76142 2.23858,-5 5,-5 2.76142,0 5,2.23858 5,5 z"
       sodipodi:ry="5"
       sodipodi:rx="5"
       sodipodi:cy="347.36218"
       sodipodi:cx="145"
       id="path3955"
       style="fill:#000000;stroke:none"
       sodipodi:type="arc" />
    <path
       sodipodi:type="arc"
       style="fill:#000000;stroke:none"
       id="path3957"
       sodipodi:cx="145"
       sodipodi:cy="347.36218"
       sodipodi:rx="5"
       sodipodi:ry="5"
       d="m 150,347.36218 c 0,2.76143 -2.23858,5 -5,5 -2.76142,0 -5,-2.23857 -5,-5 0,-2.76142 2.23858,-5 5,-5 2.76142,0 5,2.23858 5,5 z"
       transform="translate(5,145)" />
    <path
       transform="translate(75,145)"
       d="m 150,347.36218 c 0,2.76143 -2.23858,5 -5,5 -2.76142,0 -5,-2.23857 -5,-5 0,-2.76142 2.23858,-5 5,-5 2.76142,0 5,2.23858 5,5 z"
       sodipodi:ry="5"
       sodipodi:rx="5"
       sodipodi:cy="347.36218"
       sodipodi:cx="145"
       id="path3959"
       style="fill:#000000;stroke:none"
       sodipodi:type="arc" />
    <path
       sodipodi:type="arc"
       style="fill:#000000;stroke:none"
       id="path3961"
       sodipodi:cx="145"
       sodipodi:cy="347.36218"
       sodipodi:rx="5"
       sodipodi:ry="5"
       d="m 150,347.36218 c 0,2.76143 -2.23858,5 -5,5 -2.76142,0 -5,-2.23857 -5,-5 0,-2.76142 2.23858,-5 5,-5 2.76142,0 5,2.23858 5,5 z"
       transform="translate(145,145)" />
    <path
       transform="translate(75,145)"
       d="m 150,347.36218 c 0,2.76143 -2.23858,5 -5,5 -2.76142,0 -5,-2.23857 -5,-5 0,-2.76142 2.23858,-5 5,-5 2.76142,0 5,2.23858 5,5 z"
       sodipodi:ry="5"
       sodipodi:rx="5"
       sodipodi:cy="347.36218"
       sodipodi:cx="145"
       id="path3963"
       style="fill:#000000;stroke:none"
       sodipodi:type="arc" />
    <path
       sodipodi:type="arc"
       style="fill:#000000;stroke:none"
       id="path3965"
       sodipodi:cx="145"
       sodipodi:cy="347.36218"
       sodipodi:rx="5"
       sodipodi:ry="5"
       d="m 150,347.36218 c 0,2.76143 -2.23858,5 -5,5 -2.76142,0 -5,-2.23857 -5,-5 0,-2.76142 2.23858,-5 5,-5 2.76142,0 5,2.23858 5,5 z"
       transform="translate(75,145)" />
    <path
       transform="translate(215,145)"
       d="m 150,347.36218 c 0,2.76143 -2.23858,5 -5,5 -2.76142,0 -5,-2.23857 -5,-5 0,-2.76142 2.23858,-5 5,-5 2.76142,0 5,2.23858 5,5 z"
       sodipodi:ry="5"
       sodipodi:rx="5"
       sodipodi:cy="347.36218"
       sodipodi:cx="145"
       id="path3967"
       style="fill:#000000;stroke:none"
       sodipodi:type="arc" />
    <path
       sodipodi:type="arc"
       style="fill:#000000;stroke:none"
       id="path3969"
       sodipodi:cx="145"
       sodipodi:cy="347.36218"
       sodipodi:rx="5"
       sodipodi:ry="5"
       d="m 150,347.36218 c 0,2.76143 -2.23858,5 -5,5 -2.76142,0 -5,-2.23857 -5,-5 0,-2.76142 2.23858,-5 5,-5 2.76142,0 5,2.23858 5,5 z"
       transform="translate(285,145)" />
  </g>
</svg>
