<?xml version="1.0" encoding="UTF-8" standalone="no"?>
<!-- Created with Inkscape (http://www.inkscape.org/) -->

<svg
   xmlns:dc="http://purl.org/dc/elements/1.1/"
   xmlns:cc="http://creativecommons.org/ns#"
   xmlns:rdf="http://www.w3.org/1999/02/22-rdf-syntax-ns#"
   xmlns:svg="http://www.w3.org/2000/svg"
   xmlns="http://www.w3.org/2000/svg"
   xmlns:sodipodi="http://sodipodi.sourceforge.net/DTD/sodipodi-0.dtd"
   xmlns:inkscape="http://www.inkscape.org/namespaces/inkscape"
   width="567"
   height="245.3"
   id="svg2"
   version="1.1"
   inkscape:version="0.48.4 r9939"
   sodipodi:docname="Neues Dokument 1">
  <defs
     id="defs4" />
  <sodipodi:namedview
     id="base"
     pagecolor="#ffffff"
     bordercolor="#666666"
     borderopacity="1.0"
     inkscape:pageopacity="0.0"
     inkscape:pageshadow="2"
     inkscape:zoom="1.979899"
     inkscape:cx="293.85793"
     inkscape:cy="111.37663"
     inkscape:document-units="px"
     inkscape:current-layer="layer1"
     showgrid="true"
     inkscape:snap-bbox="true"
     inkscape:object-nodes="true"
     inkscape:snap-center="true"
     fit-margin-top="0"
     fit-margin-left="0"
     fit-margin-right="0"
     fit-margin-bottom="0"
     inkscape:window-width="1920"
     inkscape:window-height="1018"
     inkscape:window-x="-8"
     inkscape:window-y="-8"
     inkscape:window-maximized="1">
    <inkscape:grid
       type="xygrid"
       id="grid2985"
       empspacing="5"
       visible="true"
       enabled="true"
       snapvisiblegridlinesonly="true"
       spacingx="10px"
       spacingy="10px"
       originx="-49.000004px"
       originy="-329.8125px" />
  </sodipodi:namedview>
  <metadata
     id="metadata7">
    <rdf:RDF>
      <cc:Work
         rdf:about="">
        <dc:format>image/svg+xml</dc:format>
        <dc:type
           rdf:resource="http://purl.org/dc/dcmitype/StillImage" />
        <dc:title></dc:title>
      </cc:Work>
    </rdf:RDF>
  </metadata>
  <g
     inkscape:label="Ebene 1"
     inkscape:groupmode="layer"
     id="layer1"
     transform="translate(-49.000004,-477.24968)">
    <rect
       style="fill:#ffffff;fill-opacity:1;stroke:#000000;stroke-width:2"
       id="rect2987"
       width="160"
       height="160"
       x="52.000004"
       y="500.36218" />
    <rect
       y="500.36215"
       x="252"
       height="160.00002"
       width="160.00005"
       id="rect2989"
       style="fill:#ffffff;fill-opacity:1;stroke:#000000;stroke-width:1.99999988" />
    <rect
       style="fill:#ffffff;fill-opacity:1;stroke:#000000;stroke-width:1.99999988"
       id="rect2991"
       width="160.00003"
       height="160.00002"
       x="452"
       y="500.36215" />
    <path
       style="fill:none;stroke:#000000;stroke-width:2;stroke-linecap:butt;stroke-linejoin:miter;stroke-opacity:1"
       d="m 332.00006,500.36222 0,160"
       id="path2999"
       inkscape:connector-curvature="0" />
    <path
       style="fill:none;stroke:#000000;stroke-width:2;stroke-linecap:butt;stroke-linejoin:miter;stroke-opacity:1"
       d="m 252.00006,580.36222 160,0"
       id="path3001"
       inkscape:connector-curvature="0" />
    <path
       inkscape:connector-curvature="0"
       id="path3003"
       d="m 533,499.36223 0,160"
       style="fill:none;stroke:#000000;stroke-width:2;stroke-linecap:butt;stroke-linejoin:miter;stroke-opacity:1" />
    <path
       inkscape:connector-curvature="0"
       id="path3005"
       d="m 453,579.36223 160,0"
       style="fill:none;stroke:#000000;stroke-width:2;stroke-linecap:butt;stroke-linejoin:miter;stroke-opacity:1" />
    <path
       style="fill:none;stroke:#000000;stroke-width:2;stroke-linecap:butt;stroke-linejoin:miter;stroke-opacity:1"
       d="m 492,500.36223 0,160"
       id="path3009"
       inkscape:connector-curvature="0" />
    <path
       style="fill:none;stroke:#000000;stroke-width:2;stroke-linecap:butt;stroke-linejoin:miter;stroke-opacity:1"
       d="m 572,500.36223 0,160"
       id="path3011"
       inkscape:connector-curvature="0" />
    <path
       style="fill:none;stroke:#000000;stroke-width:2;stroke-linecap:butt;stroke-linejoin:miter;stroke-opacity:1"
       d="m 451,541.36223 160,0"
       id="path3013"
       inkscape:connector-curvature="0" />
    <path
       inkscape:connector-curvature="0"
       id="path3015"
       d="m 451,621.36223 160,0"
       style="fill:none;stroke:#000000;stroke-width:2;stroke-linecap:butt;stroke-linejoin:miter;stroke-opacity:1" />
    <g
       style="font-size:16px;font-style:normal;font-weight:normal;line-height:125%;letter-spacing:0px;word-spacing:0px;fill:#000000;fill-opacity:1;stroke:none;font-family:Times New Roman;-inkscape-font-specification:Times New Roman"
       id="text3017"
       transform="translate(2,-2)">
      <path
         d="m 172.5,482.36218 0,5.23438 c 0.57812,-0.63541 1.03645,-1.04296 1.375,-1.22266 0.33854,-0.17968 0.67708,-0.26952 1.01562,-0.26953 0.40625,10e-6 0.75521,0.11199 1.04688,0.33594 0.29166,0.22396 0.50781,0.57552 0.64844,1.05469 0.099,0.33333 0.14843,0.94271 0.14843,1.82812 l 0,2.53125 c 0,0.45313 0.0365,0.76302 0.10938,0.92969 0.0521,0.125 0.14062,0.22396 0.26562,0.29687 0.125,0.0729 0.35416,0.10938 0.6875,0.10938 l 0,0.28125 -3.51562,0 0,-0.28125 0.16406,0 c 0.33333,0 0.5651,-0.0508 0.69531,-0.15235 0.13021,-0.10156 0.22135,-0.2513 0.27344,-0.44921 0.0156,-0.0833 0.0234,-0.32813 0.0234,-0.73438 l 0,-2.53125 c -10e-6,-0.78124 -0.0404,-1.29427 -0.12109,-1.53906 -0.0807,-0.24479 -0.20964,-0.42838 -0.38672,-0.55078 -0.17709,-0.12239 -0.39063,-0.18359 -0.64063,-0.1836 -0.25521,10e-6 -0.52083,0.0677 -0.79687,0.20313 -0.27605,0.13542 -0.60678,0.40886 -0.99219,0.82031 l 0,3.78125 c 0,0.48958 0.0273,0.79427 0.082,0.91406 0.0547,0.11979 0.15625,0.22006 0.30469,0.30078 0.14843,0.0807 0.40494,0.1211 0.76953,0.1211 l 0,0.28125 -3.54688,0 0,-0.28125 c 0.31771,0 0.56771,-0.0495 0.75,-0.14844 0.10417,-0.0521 0.1875,-0.15104 0.25,-0.29687 0.0625,-0.14584 0.0937,-0.44271 0.0937,-0.89063 l 0,-6.47656 c 0,-0.8177 -0.0195,-1.32031 -0.0586,-1.50781 -0.0391,-0.1875 -0.099,-0.3151 -0.17969,-0.38282 -0.0807,-0.0677 -0.1888,-0.10155 -0.32422,-0.10156 -0.10937,10e-6 -0.28645,0.0417 -0.53125,0.125 L 170,483.23718 l 2.14062,-0.875 z"
         id="path3191"
         inkscape:connector-curvature="0" />
      <path
         d="m 182.1875,486.57312 8.42969,0 0,0.64063 -8.42969,0 z m 0,2.54688 8.42969,0 0,0.64062 -8.42969,0 z"
         id="path3193"
         inkscape:connector-curvature="0" />
      <path
         d="m 198.375,489.56531 0,1.10937 -1.42188,0 0,2.79688 -1.28906,0 0,-2.79688 -4.48437,0 0,-1 4.91406,-7.01562 0.85937,0 0,6.90625 z m -2.71094,0 0,-5.25781 -3.71875,5.25781 z"
         id="path3195"
         inkscape:connector-curvature="0" />
      <path
         d="m 201.53125,482.36218 0,5.23438 c 0.57812,-0.63541 1.03645,-1.04296 1.375,-1.22266 0.33854,-0.17968 0.67708,-0.26952 1.01562,-0.26953 0.40625,10e-6 0.75521,0.11199 1.04688,0.33594 0.29166,0.22396 0.50781,0.57552 0.64844,1.05469 0.099,0.33333 0.14843,0.94271 0.14843,1.82812 l 0,2.53125 c 0,0.45313 0.0365,0.76302 0.10938,0.92969 0.0521,0.125 0.14062,0.22396 0.26562,0.29687 0.125,0.0729 0.35416,0.10938 0.6875,0.10938 l 0,0.28125 -3.51562,0 0,-0.28125 0.16406,0 c 0.33333,0 0.5651,-0.0508 0.69531,-0.15235 0.13021,-0.10156 0.22135,-0.2513 0.27344,-0.44921 0.0156,-0.0833 0.0234,-0.32813 0.0234,-0.73438 l 0,-2.53125 c -10e-6,-0.78124 -0.0404,-1.29427 -0.12109,-1.53906 -0.0807,-0.24479 -0.20964,-0.42838 -0.38672,-0.55078 -0.17709,-0.12239 -0.39063,-0.18359 -0.64063,-0.1836 -0.25521,10e-6 -0.52083,0.0677 -0.79687,0.20313 -0.27605,0.13542 -0.60678,0.40886 -0.99219,0.82031 l 0,3.78125 c 0,0.48958 0.0273,0.79427 0.082,0.91406 0.0547,0.11979 0.15625,0.22006 0.30469,0.30078 0.14843,0.0807 0.40494,0.1211 0.76953,0.1211 l 0,0.28125 -3.54688,0 0,-0.28125 c 0.31771,0 0.56771,-0.0495 0.75,-0.14844 0.10417,-0.0521 0.1875,-0.15104 0.25,-0.29687 0.0625,-0.14584 0.0937,-0.44271 0.0937,-0.89063 l 0,-6.47656 c 0,-0.8177 -0.0195,-1.32031 -0.0586,-1.50781 -0.0391,-0.1875 -0.099,-0.3151 -0.17969,-0.38282 -0.0807,-0.0677 -0.1888,-0.10155 -0.32422,-0.10156 -0.10937,10e-6 -0.28645,0.0417 -0.53125,0.125 l -0.10937,-0.27344 2.14062,-0.875 z"
         id="path3197"
         inkscape:connector-curvature="0" />
    </g>
    <g
       style="font-size:10px;font-style:normal;font-weight:normal;line-height:125%;letter-spacing:0px;word-spacing:0px;fill:#000000;fill-opacity:1;stroke:none;font-family:Times New Roman;-inkscape-font-specification:Times New Roman"
       id="text3021"
       transform="translate(2,-2)">
      <path
         d="m 178.69629,490.87878 1.61133,-0.78613 0.16113,0 0,5.59082 c 0,0.3711 0.0155,0.60222 0.0464,0.69336 0.0309,0.0912 0.0952,0.16113 0.19287,0.20996 0.0976,0.0488 0.29622,0.0765 0.5957,0.083 l 0,0.18066 -2.49023,0 0,-0.18066 c 0.31249,-0.007 0.51432,-0.0334 0.60547,-0.0806 0.0911,-0.0472 0.15462,-0.11067 0.19042,-0.19043 0.0358,-0.0797 0.0537,-0.31819 0.0537,-0.71533 l 0,-3.57422 c -1e-5,-0.48176 -0.0163,-0.79101 -0.0488,-0.92773 -0.0228,-0.10416 -0.0643,-0.18066 -0.12451,-0.22949 -0.0602,-0.0488 -0.13266,-0.0732 -0.21729,-0.0732 -0.12044,1e-5 -0.28809,0.0505 -0.50293,0.15137 z"
         id="path3188"
         inkscape:connector-curvature="0" />
    </g>
    <g
       style="font-size:16px;font-style:normal;font-weight:normal;line-height:125%;letter-spacing:0px;word-spacing:0px;fill:#000000;fill-opacity:1;stroke:none;font-family:Times New Roman;-inkscape-font-specification:Times New Roman"
       id="text3025"
       transform="translate(2,-2)">
      <path
         d="m 372.5,481.25281 0,5.23437 c 0.57812,-0.63541 1.03645,-1.04296 1.375,-1.22265 0.33854,-0.17968 0.67708,-0.26953 1.01562,-0.26953 0.40625,0 0.75521,0.11198 1.04688,0.33593 0.29166,0.22397 0.50781,0.57553 0.64844,1.05469 0.099,0.33334 0.14843,0.94271 0.14843,1.82813 l 0,2.53125 c 0,0.45312 0.0365,0.76302 0.10938,0.92968 0.0521,0.125 0.14062,0.22396 0.26562,0.29688 0.125,0.0729 0.35416,0.10937 0.6875,0.10937 l 0,0.28125 -3.51562,0 0,-0.28125 0.16406,0 c 0.33333,0 0.5651,-0.0508 0.69531,-0.15234 0.13021,-0.10156 0.22135,-0.2513 0.27344,-0.44922 0.0156,-0.0833 0.0234,-0.32812 0.0234,-0.73437 l 0,-2.53125 c -10e-6,-0.78125 -0.0404,-1.29427 -0.12109,-1.53907 -0.0807,-0.24478 -0.20964,-0.42838 -0.38672,-0.55078 -0.17709,-0.12239 -0.39063,-0.18359 -0.64063,-0.18359 -0.25521,0 -0.52083,0.0677 -0.79687,0.20312 -0.27605,0.13543 -0.60678,0.40886 -0.99219,0.82032 l 0,3.78125 c 0,0.48958 0.0273,0.79427 0.082,0.91406 0.0547,0.11979 0.15625,0.22005 0.30469,0.30078 0.14843,0.0807 0.40494,0.12109 0.76953,0.12109 l 0,0.28125 -3.54688,0 0,-0.28125 c 0.31771,0 0.56771,-0.0495 0.75,-0.14843 0.10417,-0.0521 0.1875,-0.15105 0.25,-0.29688 0.0625,-0.14583 0.0937,-0.44271 0.0937,-0.89062 l 0,-6.47657 c 0,-0.8177 -0.0195,-1.3203 -0.0586,-1.50781 -0.0391,-0.18749 -0.099,-0.31509 -0.17969,-0.38281 -0.0807,-0.0677 -0.1888,-0.10155 -0.32422,-0.10156 -0.10937,10e-6 -0.28645,0.0417 -0.53125,0.125 L 370,482.12781 l 2.14062,-0.875 z"
         id="path3179"
         inkscape:connector-curvature="0" />
      <path
         d="m 382.1875,485.46375 8.42969,0 0,0.64062 -8.42969,0 z m 0,2.54687 8.42969,0 0,0.64063 -8.42969,0 z"
         id="path3181"
         inkscape:connector-curvature="0" />
      <path
         d="m 398.26562,490.32312 -0.74218,2.03906 -6.25,0 0,-0.28906 c 1.83854,-1.67708 3.13281,-3.04687 3.88281,-4.10937 0.75,-1.0625 1.12499,-2.03385 1.125,-2.91407 -10e-6,-0.67186 -0.20573,-1.22395 -0.61719,-1.65625 -0.41146,-0.43228 -0.90365,-0.64843 -1.47656,-0.64843 -0.52084,0 -0.98828,0.15235 -1.40234,0.45703 -0.41407,0.30469 -0.72006,0.75131 -0.91797,1.33984 l -0.28907,0 c 0.13021,-0.96353 0.46485,-1.70312 1.00391,-2.21875 0.53906,-0.51561 1.21224,-0.77343 2.01953,-0.77344 0.85937,10e-6 1.57682,0.27605 2.15235,0.82813 0.57551,0.55209 0.86327,1.20313 0.86328,1.95312 -10e-6,0.53647 -0.12501,1.07293 -0.375,1.60938 -0.38543,0.84375 -1.01042,1.73698 -1.875,2.67969 -1.29688,1.41666 -2.10678,2.27083 -2.42969,2.5625 l 2.76562,0 c 0.5625,0 0.95703,-0.0208 1.1836,-0.0625 0.22656,-0.0417 0.43098,-0.12631 0.61328,-0.25391 0.18228,-0.1276 0.34114,-0.30859 0.47656,-0.54297 z"
         id="path3183"
         inkscape:connector-curvature="0" />
      <path
         d="m 401.53125,481.25281 0,5.23437 c 0.57812,-0.63541 1.03645,-1.04296 1.375,-1.22265 0.33854,-0.17968 0.67708,-0.26953 1.01562,-0.26953 0.40625,0 0.75521,0.11198 1.04688,0.33593 0.29166,0.22397 0.50781,0.57553 0.64844,1.05469 0.099,0.33334 0.14843,0.94271 0.14843,1.82813 l 0,2.53125 c 0,0.45312 0.0365,0.76302 0.10938,0.92968 0.0521,0.125 0.14062,0.22396 0.26562,0.29688 0.125,0.0729 0.35416,0.10937 0.6875,0.10937 l 0,0.28125 -3.51562,0 0,-0.28125 0.16406,0 c 0.33333,0 0.5651,-0.0508 0.69531,-0.15234 0.13021,-0.10156 0.22135,-0.2513 0.27344,-0.44922 0.0156,-0.0833 0.0234,-0.32812 0.0234,-0.73437 l 0,-2.53125 c -10e-6,-0.78125 -0.0404,-1.29427 -0.12109,-1.53907 -0.0807,-0.24478 -0.20964,-0.42838 -0.38672,-0.55078 -0.17709,-0.12239 -0.39063,-0.18359 -0.64063,-0.18359 -0.25521,0 -0.52083,0.0677 -0.79687,0.20312 -0.27605,0.13543 -0.60678,0.40886 -0.99219,0.82032 l 0,3.78125 c 0,0.48958 0.0273,0.79427 0.082,0.91406 0.0547,0.11979 0.15625,0.22005 0.30469,0.30078 0.14843,0.0807 0.40494,0.12109 0.76953,0.12109 l 0,0.28125 -3.54688,0 0,-0.28125 c 0.31771,0 0.56771,-0.0495 0.75,-0.14843 0.10417,-0.0521 0.1875,-0.15105 0.25,-0.29688 0.0625,-0.14583 0.0937,-0.44271 0.0937,-0.89062 l 0,-6.47657 c 0,-0.8177 -0.0195,-1.3203 -0.0586,-1.50781 -0.0391,-0.18749 -0.099,-0.31509 -0.17969,-0.38281 -0.0807,-0.0677 -0.1888,-0.10155 -0.32422,-0.10156 -0.10937,10e-6 -0.28645,0.0417 -0.53125,0.125 l -0.10937,-0.27344 2.14062,-0.875 z"
         id="path3185"
         inkscape:connector-curvature="0" />
    </g>
    <g
       style="font-size:10px;font-style:normal;font-weight:normal;line-height:125%;letter-spacing:0px;word-spacing:0px;fill:#000000;fill-opacity:1;stroke:none;font-family:Times New Roman;-inkscape-font-specification:Times New Roman"
       id="text3029"
       transform="translate(2,-2)">
      <path
         d="m 382.10937,494.46667 -0.46386,1.27442 -3.90625,0 0,-0.18067 c 1.14908,-1.04817 1.958,-1.90429 2.42676,-2.56835 0.46874,-0.66406 0.70312,-1.27116 0.70312,-1.82129 0,-0.41992 -0.12858,-0.76497 -0.38574,-1.03516 -0.25717,-0.27018 -0.56478,-0.40527 -0.92285,-0.40527 -0.32553,0 -0.61768,0.0952 -0.87647,0.28564 -0.25879,0.19044 -0.45003,0.46957 -0.57373,0.8374 l -0.18066,0 c 0.0814,-0.6022 0.29052,-1.06444 0.62744,-1.38672 0.33691,-0.32225 0.75765,-0.48339 1.26221,-0.48339 0.5371,0 0.98551,0.17253 1.34521,0.51757 0.3597,0.34506 0.53955,0.75196 0.53955,1.22071 0,0.33529 -0.0781,0.67057 -0.23437,1.00586 -0.24089,0.52734 -0.63152,1.08561 -1.17188,1.6748 -0.81055,0.88542 -1.31673,1.41927 -1.51855,1.60156 l 1.72851,0 c 0.35156,0 0.59814,-0.013 0.73975,-0.0391 0.1416,-0.026 0.26936,-0.0789 0.3833,-0.15869 0.11393,-0.0798 0.21321,-0.19287 0.29785,-0.33936 z"
         id="path3176"
         inkscape:connector-curvature="0" />
    </g>
    <g
       style="font-size:16px;font-style:normal;font-weight:normal;line-height:125%;letter-spacing:0px;word-spacing:0px;fill:#000000;fill-opacity:1;stroke:none;font-family:Times New Roman;-inkscape-font-specification:Times New Roman"
       id="text3033"
       transform="translate(2,-2)">
      <path
         d="m 582.5,481.25281 0,5.23437 c 0.57812,-0.63541 1.03645,-1.04296 1.375,-1.22265 0.33854,-0.17968 0.67708,-0.26953 1.01562,-0.26953 0.40625,0 0.75521,0.11198 1.04688,0.33593 0.29166,0.22397 0.50781,0.57553 0.64844,1.05469 0.0989,0.33334 0.14843,0.94271 0.14843,1.82813 l 0,2.53125 c 0,0.45312 0.0365,0.76302 0.10938,0.92968 0.0521,0.125 0.14062,0.22396 0.26562,0.29688 0.125,0.0729 0.35416,0.10937 0.6875,0.10937 l 0,0.28125 -3.51562,0 0,-0.28125 0.16406,0 c 0.33333,0 0.5651,-0.0508 0.69531,-0.15234 0.13021,-0.10156 0.22135,-0.2513 0.27344,-0.44922 0.0156,-0.0833 0.0234,-0.32812 0.0234,-0.73437 l 0,-2.53125 c -10e-6,-0.78125 -0.0404,-1.29427 -0.12109,-1.53907 -0.0807,-0.24478 -0.20964,-0.42838 -0.38672,-0.55078 -0.17709,-0.12239 -0.39063,-0.18359 -0.64063,-0.18359 -0.25521,0 -0.52083,0.0677 -0.79687,0.20312 -0.27605,0.13543 -0.60678,0.40886 -0.99219,0.82032 l 0,3.78125 c 0,0.48958 0.0273,0.79427 0.082,0.91406 0.0547,0.11979 0.15625,0.22005 0.30469,0.30078 0.14843,0.0807 0.40494,0.12109 0.76953,0.12109 l 0,0.28125 -3.54688,0 0,-0.28125 c 0.31771,0 0.56771,-0.0495 0.75,-0.14843 0.10417,-0.0521 0.1875,-0.15105 0.25,-0.29688 0.0625,-0.14583 0.0937,-0.44271 0.0937,-0.89062 l 0,-6.47657 c 0,-0.8177 -0.0195,-1.3203 -0.0586,-1.50781 -0.0391,-0.18749 -0.099,-0.31509 -0.17969,-0.38281 -0.0807,-0.0677 -0.1888,-0.10155 -0.32422,-0.10156 -0.10937,10e-6 -0.28645,0.0417 -0.53125,0.125 L 580,482.12781 l 2.14062,-0.875 z"
         id="path3169"
         inkscape:connector-curvature="0" />
      <path
         d="m 592.1875,485.46375 8.42969,0 0,0.64062 -8.42969,0 z m 0,2.54687 8.42969,0 0,0.64063 -8.42969,0 z"
         id="path3171"
         inkscape:connector-curvature="0" />
      <path
         d="m 603.53125,481.25281 0,5.23437 c 0.57812,-0.63541 1.03645,-1.04296 1.375,-1.22265 0.33854,-0.17968 0.67708,-0.26953 1.01562,-0.26953 0.40625,0 0.75521,0.11198 1.04688,0.33593 0.29166,0.22397 0.50781,0.57553 0.64844,1.05469 0.0989,0.33334 0.14843,0.94271 0.14843,1.82813 l 0,2.53125 c 0,0.45312 0.0365,0.76302 0.10938,0.92968 0.0521,0.125 0.14062,0.22396 0.26562,0.29688 0.125,0.0729 0.35416,0.10937 0.6875,0.10937 l 0,0.28125 -3.51562,0 0,-0.28125 0.16406,0 c 0.33333,0 0.5651,-0.0508 0.69531,-0.15234 0.13021,-0.10156 0.22135,-0.2513 0.27344,-0.44922 0.0156,-0.0833 0.0234,-0.32812 0.0234,-0.73437 l 0,-2.53125 c -10e-6,-0.78125 -0.0404,-1.29427 -0.12109,-1.53907 -0.0807,-0.24478 -0.20964,-0.42838 -0.38672,-0.55078 -0.17709,-0.12239 -0.39063,-0.18359 -0.64063,-0.18359 -0.25521,0 -0.52083,0.0677 -0.79687,0.20312 -0.27605,0.13543 -0.60678,0.40886 -0.99219,0.82032 l 0,3.78125 c 0,0.48958 0.0273,0.79427 0.082,0.91406 0.0547,0.11979 0.15625,0.22005 0.30469,0.30078 0.14843,0.0807 0.40494,0.12109 0.76953,0.12109 l 0,0.28125 -3.54688,0 0,-0.28125 c 0.31771,0 0.56771,-0.0495 0.75,-0.14843 0.10417,-0.0521 0.1875,-0.15105 0.25,-0.29688 0.0625,-0.14583 0.0937,-0.44271 0.0937,-0.89062 l 0,-6.47657 c 0,-0.8177 -0.0195,-1.3203 -0.0586,-1.50781 -0.0391,-0.18749 -0.099,-0.31509 -0.17969,-0.38281 -0.0807,-0.0677 -0.1888,-0.10155 -0.32422,-0.10156 -0.10937,10e-6 -0.28645,0.0417 -0.53125,0.125 l -0.10937,-0.27344 2.14062,-0.875 z"
         id="path3173"
         inkscape:connector-curvature="0" />
    </g>
    <g
       style="font-size:10px;font-style:normal;font-weight:normal;line-height:125%;letter-spacing:0px;word-spacing:0px;fill:#000000;fill-opacity:1;stroke:none;font-family:Times New Roman;-inkscape-font-specification:Times New Roman"
       id="text3037"
       transform="translate(2,-2)">
      <path
         d="m 588.03223,490.37976 c 0.1888,-0.44596 0.42724,-0.79019 0.71533,-1.03271 0.28808,-0.24251 0.64697,-0.36377 1.07666,-0.36377 0.53059,0 0.9375,0.17253 1.2207,0.51757 0.21484,0.25717 0.32226,0.53224 0.32227,0.8252 -1e-5,0.48178 -0.30274,0.97982 -0.90821,1.49414 0.4069,0.15951 0.71452,0.38737 0.92286,0.68359 0.20833,0.29623 0.31249,0.64454 0.3125,1.04493 -10e-6,0.57291 -0.1823,1.06933 -0.54688,1.48925 -0.47526,0.54688 -1.16374,0.82032 -2.06543,0.82032 -0.44596,0 -0.74951,-0.0553 -0.91064,-0.16602 -0.16114,-0.11068 -0.2417,-0.22949 -0.2417,-0.35644 0,-0.0944 0.0382,-0.17741 0.11474,-0.24903 0.0765,-0.0716 0.16846,-0.10742 0.27588,-0.10742 0.0814,0 0.16439,0.013 0.24903,0.0391 0.0553,0.0163 0.18066,0.0757 0.37597,0.17823 0.19531,0.10253 0.3304,0.16357 0.40528,0.1831 0.12044,0.0358 0.24902,0.0537 0.38574,0.0537 0.33203,0 0.62093,-0.12858 0.8667,-0.38574 0.24576,-0.25716 0.36865,-0.56152 0.36865,-0.91309 0,-0.25716 -0.057,-0.50781 -0.1709,-0.75195 -0.0846,-0.18229 -0.17741,-0.32063 -0.27832,-0.41504 -0.13998,-0.1302 -0.33203,-0.24821 -0.57617,-0.354 -0.24414,-0.10579 -0.49317,-0.15869 -0.74707,-0.15869 l -0.15625,0 0,-0.14649 c 0.25716,-0.0326 0.51513,-0.12532 0.77392,-0.27832 0.25879,-0.15299 0.44678,-0.33691 0.56397,-0.55176 0.11718,-0.21484 0.17578,-0.45084 0.17578,-0.708 0,-0.33529 -0.10498,-0.60628 -0.31494,-0.81299 -0.20996,-0.2067 -0.47119,-0.31006 -0.78369,-0.31006 -0.50456,0 -0.92611,0.27019 -1.26465,0.81055 z"
         id="path3166"
         inkscape:connector-curvature="0" />
    </g>
    <text
       xml:space="preserve"
       style="font-size:16px;font-style:normal;font-weight:normal;line-height:125%;letter-spacing:0px;word-spacing:0px;fill:#000000;fill-opacity:1;stroke:none;font-family:symbol;-inkscape-font-specification:symbol"
       x="50.507626"
       y="41.385643"
       id="text3041"
       sodipodi:linespacing="125%"
       transform="translate(0,452.36218)"><tspan
         sodipodi:role="line"
         id="tspan3043"
         x="50.507626"
         y="41.385643"
         style="font-style:normal;font-variant:normal;font-weight:normal;font-stretch:normal;font-family:Cambria Math;-inkscape-font-specification:Cambria Math" /></text>
    <g
       transform="matrix(0.97451383,0,0,0.97451383,-1.9887183,454.82143)"
       style="font-size:16px;font-style:normal;font-weight:normal;line-height:125%;letter-spacing:0px;word-spacing:0px;fill:#000000;fill-opacity:1;stroke:none;font-family:symbol;-inkscape-font-specification:symbol"
       id="text3045">
      <path
         d="m 55.400669,36.505581 2.5,0 c -1.583335,-1.322914 -2.375001,-2.937496 -2.375,-4.84375 -10e-7,-1.036451 0.208332,-1.966138 0.625,-2.789063 0.416665,-0.822906 1.005206,-1.472645 1.765625,-1.949218 0.760413,-0.476551 1.674474,-0.714832 2.742188,-0.714844 1.057284,1.2e-5 1.938794,0.218761 2.644531,0.65625 0.70572,0.43751 1.286448,1.065114 1.742187,1.882812 0.455719,0.817717 0.683583,1.78907 0.683594,2.914063 -1.1e-5,1.906254 -0.791677,3.520836 -2.375,4.84375 l 2.5,0 0,1.351562 -4.453125,0 0,-1.265625 c 1.854158,-0.864581 2.781241,-2.429683 2.78125,-4.695312 -9e-6,-1.276035 -0.326832,-2.326815 -0.980469,-3.152344 -0.653653,-0.825511 -1.503913,-1.238271 -2.550781,-1.238281 -1.07813,10e-6 -1.940108,0.415374 -2.585937,1.246094 -0.645837,0.830737 -0.968753,1.852871 -0.96875,3.066406 -3e-6,2.296879 0.921871,3.888023 2.765625,4.773437 l 0,1.265625 -4.460938,0 z"
         id="path3050"
         inkscape:connector-curvature="0" />
    </g>
    <g
       style="font-size:10px;font-style:normal;font-weight:normal;line-height:125%;letter-spacing:0px;word-spacing:0px;fill:#000000;fill-opacity:1;stroke:none;font-family:Times New Roman;-inkscape-font-specification:Times New Roman"
       id="text3052"
       transform="translate(2,-2)">
      <path
         d="m 62,490.87878 1.611328,-0.78613 0.161133,0 0,5.59082 c -3e-6,0.3711 0.01546,0.60222 0.04639,0.69336 0.03092,0.0912 0.09521,0.16113 0.192871,0.20996 0.09765,0.0488 0.29622,0.0765 0.595703,0.083 l 0,0.18066 -2.490235,0 0,-0.18066 c 0.312499,-0.007 0.514322,-0.0334 0.605469,-0.0806 0.09114,-0.0472 0.154621,-0.11067 0.19043,-0.19043 0.03581,-0.0797 0.05371,-0.31819 0.05371,-0.71533 l 0,-3.57422 c -2e-6,-0.48176 -0.01628,-0.79101 -0.04883,-0.92773 -0.02279,-0.10416 -0.06429,-0.18066 -0.124512,-0.22949 -0.06022,-0.0488 -0.132652,-0.0732 -0.217285,-0.0732 -0.120444,1e-5 -0.288088,0.0505 -0.50293,0.15137 z"
         id="path3163"
         inkscape:connector-curvature="0" />
    </g>
    <g
       id="g3056"
       style="font-size:16px;font-style:normal;font-weight:normal;line-height:125%;letter-spacing:0px;word-spacing:0px;fill:#000000;fill-opacity:1;stroke:none;font-family:symbol;-inkscape-font-specification:symbol"
       transform="matrix(0.97451383,0,0,0.97451383,198.01128,454.82143)">
      <path
         inkscape:connector-curvature="0"
         id="path3058"
         d="m 55.400669,36.505581 2.5,0 c -1.583335,-1.322914 -2.375001,-2.937496 -2.375,-4.84375 -10e-7,-1.036451 0.208332,-1.966138 0.625,-2.789063 0.416665,-0.822906 1.005206,-1.472645 1.765625,-1.949218 0.760413,-0.476551 1.674474,-0.714832 2.742188,-0.714844 1.057284,1.2e-5 1.938794,0.218761 2.644531,0.65625 0.70572,0.43751 1.286448,1.065114 1.742187,1.882812 0.455719,0.817717 0.683583,1.78907 0.683594,2.914063 -1.1e-5,1.906254 -0.791677,3.520836 -2.375,4.84375 l 2.5,0 0,1.351562 -4.453125,0 0,-1.265625 c 1.854158,-0.864581 2.781241,-2.429683 2.78125,-4.695312 -9e-6,-1.276035 -0.326832,-2.326815 -0.980469,-3.152344 -0.653653,-0.825511 -1.503913,-1.238271 -2.550781,-1.238281 -1.07813,10e-6 -1.940108,0.415374 -2.585937,1.246094 -0.645837,0.830737 -0.968753,1.852871 -0.96875,3.066406 -3e-6,2.296879 0.921871,3.888023 2.765625,4.773437 l 0,1.265625 -4.460938,0 z" />
    </g>
    <g
       transform="matrix(0.97451383,0,0,0.97451383,398.01128,454.82143)"
       style="font-size:16px;font-style:normal;font-weight:normal;line-height:125%;letter-spacing:0px;word-spacing:0px;fill:#000000;fill-opacity:1;stroke:none;font-family:symbol;-inkscape-font-specification:symbol"
       id="g3060">
      <path
         d="m 55.400669,36.505581 2.5,0 c -1.583335,-1.322914 -2.375001,-2.937496 -2.375,-4.84375 -10e-7,-1.036451 0.208332,-1.966138 0.625,-2.789063 0.416665,-0.822906 1.005206,-1.472645 1.765625,-1.949218 0.760413,-0.476551 1.674474,-0.714832 2.742188,-0.714844 1.057284,1.2e-5 1.938794,0.218761 2.644531,0.65625 0.70572,0.43751 1.286448,1.065114 1.742187,1.882812 0.455719,0.817717 0.683583,1.78907 0.683594,2.914063 -1.1e-5,1.906254 -0.791677,3.520836 -2.375,4.84375 l 2.5,0 0,1.351562 -4.453125,0 0,-1.265625 c 1.854158,-0.864581 2.781241,-2.429683 2.78125,-4.695312 -9e-6,-1.276035 -0.326832,-2.326815 -0.980469,-3.152344 -0.653653,-0.825511 -1.503913,-1.238271 -2.550781,-1.238281 -1.07813,10e-6 -1.940108,0.415374 -2.585937,1.246094 -0.645837,0.830737 -0.968753,1.852871 -0.96875,3.066406 -3e-6,2.296879 0.921871,3.888023 2.765625,4.773437 l 0,1.265625 -4.460938,0 z"
         id="path3062"
         inkscape:connector-curvature="0" />
    </g>
    <g
       style="font-size:10px;font-style:normal;font-weight:normal;line-height:125%;letter-spacing:0px;word-spacing:0px;fill:#000000;fill-opacity:1;stroke:none;font-family:Times New Roman;-inkscape-font-specification:Times New Roman"
       id="text3064"
       transform="translate(2,-2)">
      <path
         d="m 266.10937,494.46667 -0.46386,1.27442 -3.90625,0 0,-0.18067 c 1.14908,-1.04817 1.958,-1.90429 2.42676,-2.56835 0.46874,-0.66406 0.70312,-1.27116 0.70312,-1.82129 0,-0.41992 -0.12858,-0.76497 -0.38574,-1.03516 -0.25717,-0.27018 -0.56478,-0.40527 -0.92285,-0.40527 -0.32553,0 -0.61768,0.0952 -0.87647,0.28564 -0.25879,0.19044 -0.45003,0.46957 -0.57373,0.8374 l -0.18066,0 c 0.0814,-0.6022 0.29052,-1.06444 0.62744,-1.38672 0.33691,-0.32225 0.75765,-0.48339 1.26221,-0.48339 0.5371,0 0.98551,0.17253 1.34521,0.51757 0.3597,0.34506 0.53955,0.75196 0.53955,1.22071 0,0.33529 -0.0781,0.67057 -0.23437,1.00586 -0.24089,0.52734 -0.63152,1.08561 -1.17188,1.6748 -0.81055,0.88542 -1.31673,1.41927 -1.51855,1.60156 l 1.72851,0 c 0.35156,0 0.59814,-0.013 0.73975,-0.0391 0.1416,-0.026 0.26936,-0.0789 0.3833,-0.15869 0.11393,-0.0798 0.21321,-0.19287 0.29785,-0.33936 z"
         id="path3160"
         inkscape:connector-curvature="0" />
    </g>
    <g
       style="font-size:10px;font-style:normal;font-weight:normal;line-height:125%;letter-spacing:0px;word-spacing:0px;fill:#000000;fill-opacity:1;stroke:none;font-family:Times New Roman;-inkscape-font-specification:Times New Roman"
       id="text3068"
       transform="translate(2,-2)">
      <path
         d="m 462.03223,490.37976 c 0.1888,-0.44596 0.42724,-0.79019 0.71533,-1.03271 0.28808,-0.24251 0.64697,-0.36377 1.07666,-0.36377 0.53059,0 0.9375,0.17253 1.2207,0.51757 0.21484,0.25717 0.32226,0.53224 0.32227,0.8252 -10e-6,0.48178 -0.30274,0.97982 -0.90821,1.49414 0.4069,0.15951 0.71452,0.38737 0.92286,0.68359 0.20833,0.29623 0.31249,0.64454 0.3125,1.04493 -1e-5,0.57291 -0.1823,1.06933 -0.54688,1.48925 -0.47526,0.54688 -1.16374,0.82032 -2.06543,0.82032 -0.44596,0 -0.74951,-0.0553 -0.91064,-0.16602 -0.16114,-0.11068 -0.2417,-0.22949 -0.2417,-0.35644 0,-0.0944 0.0383,-0.17741 0.11474,-0.24903 0.0765,-0.0716 0.16846,-0.10742 0.27588,-0.10742 0.0814,0 0.16439,0.013 0.24903,0.0391 0.0553,0.0163 0.18066,0.0757 0.37597,0.17823 0.19531,0.10253 0.3304,0.16357 0.40528,0.1831 0.12044,0.0358 0.24902,0.0537 0.38574,0.0537 0.33203,0 0.62093,-0.12858 0.8667,-0.38574 0.24576,-0.25716 0.36865,-0.56152 0.36865,-0.91309 0,-0.25716 -0.057,-0.50781 -0.1709,-0.75195 -0.0846,-0.18229 -0.17741,-0.32063 -0.27832,-0.41504 -0.13998,-0.1302 -0.33203,-0.24821 -0.57617,-0.354 -0.24414,-0.10579 -0.49317,-0.15869 -0.74707,-0.15869 l -0.15625,0 0,-0.14649 c 0.25716,-0.0326 0.51513,-0.12532 0.77392,-0.27832 0.25879,-0.15299 0.44678,-0.33691 0.56397,-0.55176 0.11718,-0.21484 0.17578,-0.45084 0.17578,-0.708 0,-0.33529 -0.10498,-0.60628 -0.31494,-0.81299 -0.20996,-0.2067 -0.47119,-0.31006 -0.78369,-0.31006 -0.50456,0 -0.92611,0.27019 -1.26465,0.81055 z"
         id="path3157"
         inkscape:connector-curvature="0" />
    </g>
    <g
       style="font-size:10px;font-style:normal;font-weight:normal;line-height:125%;letter-spacing:0px;word-spacing:0px;fill:#000000;fill-opacity:1;stroke:none;font-family:Times New Roman;-inkscape-font-specification:Times New Roman"
       id="text3076"
       transform="translate(2,-2)">
      <path
         d="m 134,688.87878 1.61133,-0.78613 0.16113,0 0,5.59082 c 0,0.3711 0.0155,0.60222 0.0464,0.69336 0.0309,0.0911 0.0952,0.16113 0.19287,0.20996 0.0977,0.0488 0.29622,0.0765 0.5957,0.083 l 0,0.18066 -2.49023,0 0,-0.18066 c 0.3125,-0.007 0.51432,-0.0334 0.60547,-0.0806 0.0911,-0.0472 0.15462,-0.11067 0.19043,-0.19043 0.0358,-0.0798 0.0537,-0.31819 0.0537,-0.71533 l 0,-3.57422 c -1e-5,-0.48176 -0.0163,-0.79101 -0.0488,-0.92773 -0.0228,-0.10416 -0.0643,-0.18066 -0.12451,-0.22949 -0.0602,-0.0488 -0.13265,-0.0732 -0.21729,-0.0733 -0.12044,10e-6 -0.28809,0.0505 -0.50293,0.15137 z"
         id="path3269"
         inkscape:connector-curvature="0" />
    </g>
    <g
       style="font-size:10px;font-style:normal;font-weight:normal;line-height:125%;letter-spacing:0px;word-spacing:0px;fill:#000000;fill-opacity:1;stroke:none;font-family:Times New Roman;-inkscape-font-specification:Times New Roman"
       id="text3088"
       transform="translate(2,-2)">
      <path
         d="m 342.10937,692.46667 -0.46386,1.27442 -3.90625,0 0,-0.18067 c 1.14908,-1.04817 1.958,-1.90429 2.42676,-2.56835 0.46874,-0.66406 0.70312,-1.27116 0.70312,-1.82129 0,-0.41992 -0.12858,-0.76497 -0.38574,-1.03516 -0.25717,-0.27018 -0.56478,-0.40527 -0.92285,-0.40527 -0.32553,0 -0.61768,0.0952 -0.87647,0.28564 -0.25879,0.19044 -0.45003,0.46957 -0.57373,0.8374 l -0.18066,0 c 0.0814,-0.6022 0.29052,-1.06444 0.62744,-1.38672 0.33691,-0.32225 0.75765,-0.48339 1.26221,-0.48339 0.5371,0 0.98551,0.17253 1.34521,0.51757 0.3597,0.34506 0.53955,0.75196 0.53955,1.22071 0,0.33529 -0.0781,0.67057 -0.23437,1.00586 -0.24089,0.52734 -0.63152,1.08561 -1.17188,1.6748 -0.81055,0.88542 -1.31673,1.41927 -1.51855,1.60156 l 1.72851,0 c 0.35156,0 0.59814,-0.013 0.73975,-0.0391 0.1416,-0.026 0.26936,-0.0789 0.3833,-0.15869 0.11393,-0.0797 0.21321,-0.19287 0.29785,-0.33936 z"
         id="path3266"
         inkscape:connector-curvature="0" />
    </g>
    <g
       style="font-size:10px;font-style:normal;font-weight:normal;line-height:125%;letter-spacing:0px;word-spacing:0px;fill:#000000;fill-opacity:1;stroke:none;font-family:Times New Roman;-inkscape-font-specification:Times New Roman"
       id="text3092"
       transform="translate(2,-2)">
      <path
         d="m 538.03223,688.37976 c 0.1888,-0.44596 0.42724,-0.79019 0.71533,-1.03271 0.28808,-0.24251 0.64697,-0.36377 1.07666,-0.36377 0.53059,0 0.9375,0.17253 1.2207,0.51757 0.21484,0.25717 0.32226,0.53224 0.32227,0.8252 -1e-5,0.48178 -0.30274,0.97982 -0.90821,1.49414 0.4069,0.15951 0.71452,0.38737 0.92286,0.68359 0.20833,0.29623 0.31249,0.64454 0.3125,1.04493 -10e-6,0.57291 -0.1823,1.06933 -0.54688,1.48925 -0.47526,0.54688 -1.16374,0.82032 -2.06543,0.82032 -0.44596,0 -0.74951,-0.0553 -0.91064,-0.16602 -0.16114,-0.11068 -0.2417,-0.22949 -0.2417,-0.35644 0,-0.0944 0.0382,-0.17741 0.11474,-0.24903 0.0765,-0.0716 0.16846,-0.10742 0.27588,-0.10742 0.0814,0 0.16439,0.013 0.24903,0.0391 0.0553,0.0163 0.18066,0.0757 0.37597,0.17823 0.19531,0.10253 0.3304,0.16357 0.40528,0.1831 0.12044,0.0358 0.24902,0.0537 0.38574,0.0537 0.33203,0 0.62093,-0.12858 0.8667,-0.38574 0.24576,-0.25716 0.36865,-0.56152 0.36865,-0.91309 0,-0.25716 -0.057,-0.50781 -0.1709,-0.75195 -0.0846,-0.18229 -0.17741,-0.32063 -0.27832,-0.41504 -0.13998,-0.1302 -0.33203,-0.24821 -0.57617,-0.354 -0.24414,-0.10579 -0.49317,-0.15869 -0.74707,-0.15869 l -0.15625,0 0,-0.14649 c 0.25716,-0.0326 0.51513,-0.12532 0.77392,-0.27832 0.25879,-0.15299 0.44678,-0.33691 0.56397,-0.55176 0.11718,-0.21484 0.17578,-0.45084 0.17578,-0.708 0,-0.33529 -0.10498,-0.60628 -0.31494,-0.81299 -0.20996,-0.2067 -0.47119,-0.31006 -0.78369,-0.31006 -0.50456,0 -0.92611,0.27019 -1.26465,0.81055 z"
         id="path3263"
         inkscape:connector-curvature="0" />
    </g>
    <g
       style="font-size:16px;font-style:normal;font-weight:normal;line-height:125%;letter-spacing:0px;word-spacing:0px;fill:#000000;fill-opacity:1;stroke:none;font-family:symbol;-inkscape-font-specification:symbol"
       id="text3096"
       transform="translate(2,-2)">
      <path
         d="m 120,692.36218 4.42969,-5.96875 -3.90625,-5.48437 1.80469,0 2.07812,2.9375 c 0.43229,0.60938 0.73958,1.07813 0.92188,1.40625 0.2552,-0.41666 0.55728,-0.85156 0.90625,-1.30469 l 2.30468,-3.03906 1.64844,0 -4.02344,5.39844 4.33594,6.05468 -1.875,0 -2.88281,-4.08593 c -0.16147,-0.23438 -0.32813,-0.48958 -0.5,-0.76563 -0.25522,0.41667 -0.43751,0.70313 -0.54688,0.85938 l -2.875,3.99218 z"
         id="path3260"
         inkscape:connector-curvature="0" />
    </g>
    <g
       style="font-size:16px;font-style:normal;font-weight:normal;line-height:125%;letter-spacing:0px;word-spacing:0px;fill:#000000;fill-opacity:1;stroke:none;font-family:symbol;-inkscape-font-specification:symbol"
       id="text3100"
       transform="translate(2,-2)">
      <path
         d="m 324,692.36218 4.42969,-5.96875 -3.90625,-5.48437 1.80468,0 2.07813,2.9375 c 0.43229,0.60938 0.73958,1.07813 0.92187,1.40625 0.25521,-0.41666 0.55729,-0.85156 0.90625,-1.30469 l 2.30469,-3.03906 1.64844,0 -4.02344,5.39844 4.33594,6.05468 -1.875,0 -2.88281,-4.08593 c -0.16147,-0.23438 -0.32813,-0.48958 -0.5,-0.76563 -0.25522,0.41667 -0.43751,0.70313 -0.54688,0.85938 l -2.875,3.99218 z"
         id="path3257"
         inkscape:connector-curvature="0" />
    </g>
    <g
       style="font-size:16px;font-style:normal;font-weight:normal;line-height:125%;letter-spacing:0px;word-spacing:0px;fill:#000000;fill-opacity:1;stroke:none;font-family:symbol;-inkscape-font-specification:symbol"
       id="text3104"
       transform="translate(2,-2)">
      <path
         d="m 524,692.36218 4.42969,-5.96875 -3.90625,-5.48437 1.80468,0 2.07813,2.9375 c 0.43229,0.60938 0.73958,1.07813 0.92187,1.40625 0.25521,-0.41666 0.55729,-0.85156 0.90625,-1.30469 l 2.30469,-3.03906 1.64844,0 -4.02344,5.39844 4.33594,6.05468 -1.875,0 -2.88281,-4.08593 c -0.16147,-0.23438 -0.32813,-0.48958 -0.5,-0.76563 -0.25522,0.41667 -0.43751,0.70313 -0.54688,0.85938 l -2.875,3.99218 z"
         id="path3254"
         inkscape:connector-curvature="0" />
    </g>
    <g
       style="font-size:10px;font-style:normal;font-weight:normal;line-height:125%;letter-spacing:0px;word-spacing:0px;fill:#000000;fill-opacity:1;stroke:none;font-family:Times New Roman;-inkscape-font-specification:Times New Roman"
       id="text3108"
       transform="translate(2,-2)">
      <path
         d="m 100.00001,708.87878 1.61133,-0.78613 0.16113,0 0,5.59082 c 0,0.3711 0.0155,0.60222 0.0464,0.69336 0.0309,0.0911 0.0952,0.16113 0.19287,0.20996 0.0977,0.0488 0.29622,0.0765 0.5957,0.083 l 0,0.18066 -2.49023,0 0,-0.18066 c 0.31249,-0.007 0.51432,-0.0334 0.60546,-0.0806 0.0911,-0.0472 0.15462,-0.11067 0.19043,-0.19043 0.0358,-0.0798 0.0537,-0.31819 0.0537,-0.71533 l 0,-3.57422 c 0,-0.48176 -0.0163,-0.79101 -0.0488,-0.92773 -0.0228,-0.10416 -0.0643,-0.18066 -0.12452,-0.22949 -0.0602,-0.0488 -0.13265,-0.0732 -0.21728,-0.0733 -0.12044,10e-6 -0.28809,0.0505 -0.50293,0.15137 z"
         id="path3251"
         inkscape:connector-curvature="0" />
    </g>
    <g
       style="font-size:10px;font-style:normal;font-weight:normal;line-height:125%;letter-spacing:0px;word-spacing:0px;fill:#000000;fill-opacity:1;stroke:none;font-family:Times New Roman;-inkscape-font-specification:Times New Roman"
       id="text3112"
       transform="translate(2,-2)">
      <path
         d="m 308.10937,712.46667 -0.46386,1.27442 -3.90625,0 0,-0.18067 c 1.14908,-1.04817 1.958,-1.90429 2.42676,-2.56835 0.46874,-0.66406 0.70312,-1.27116 0.70312,-1.82129 0,-0.41992 -0.12858,-0.76497 -0.38574,-1.03516 -0.25717,-0.27018 -0.56478,-0.40527 -0.92285,-0.40527 -0.32553,0 -0.61768,0.0952 -0.87647,0.28564 -0.25879,0.19044 -0.45003,0.46957 -0.57373,0.8374 l -0.18066,0 c 0.0814,-0.6022 0.29052,-1.06444 0.62744,-1.38672 0.33691,-0.32225 0.75765,-0.48339 1.26221,-0.48339 0.5371,0 0.98551,0.17253 1.34521,0.51757 0.3597,0.34506 0.53955,0.75196 0.53955,1.22071 0,0.33529 -0.0781,0.67057 -0.23437,1.00586 -0.24089,0.52734 -0.63152,1.08561 -1.17188,1.6748 -0.81055,0.88542 -1.31673,1.41927 -1.51855,1.60156 l 1.72851,0 c 0.35156,0 0.59814,-0.013 0.73975,-0.0391 0.1416,-0.026 0.26936,-0.0789 0.3833,-0.15869 0.11393,-0.0797 0.21321,-0.19287 0.29785,-0.33936 z"
         id="path3248"
         inkscape:connector-curvature="0" />
    </g>
    <g
       style="font-size:10px;font-style:normal;font-weight:normal;line-height:125%;letter-spacing:0px;word-spacing:0px;fill:#000000;fill-opacity:1;stroke:none;font-family:Times New Roman;-inkscape-font-specification:Times New Roman"
       id="text3116"
       transform="translate(2,-2)">
      <path
         d="m 502.03223,708.37976 c 0.1888,-0.44596 0.42724,-0.79019 0.71533,-1.03271 0.28808,-0.24251 0.64697,-0.36377 1.07666,-0.36377 0.53059,0 0.9375,0.17253 1.2207,0.51757 0.21484,0.25717 0.32226,0.53224 0.32227,0.8252 -10e-6,0.48178 -0.30274,0.97982 -0.90821,1.49414 0.4069,0.15951 0.71452,0.38737 0.92286,0.68359 0.20833,0.29623 0.31249,0.64454 0.3125,1.04493 -1e-5,0.57291 -0.1823,1.06933 -0.54688,1.48925 -0.47526,0.54688 -1.16374,0.82032 -2.06543,0.82032 -0.44596,0 -0.74951,-0.0553 -0.91064,-0.16602 -0.16114,-0.11068 -0.2417,-0.22949 -0.2417,-0.35644 0,-0.0944 0.0383,-0.17741 0.11474,-0.24903 0.0765,-0.0716 0.16846,-0.10742 0.27588,-0.10742 0.0814,0 0.16439,0.013 0.24903,0.0391 0.0553,0.0163 0.18066,0.0757 0.37597,0.17823 0.19531,0.10253 0.3304,0.16357 0.40528,0.1831 0.12044,0.0358 0.24902,0.0537 0.38574,0.0537 0.33203,0 0.62093,-0.12858 0.8667,-0.38574 0.24576,-0.25716 0.36865,-0.56152 0.36865,-0.91309 0,-0.25716 -0.057,-0.50781 -0.1709,-0.75195 -0.0846,-0.18229 -0.17741,-0.32063 -0.27832,-0.41504 -0.13998,-0.1302 -0.33203,-0.24821 -0.57617,-0.354 -0.24414,-0.10579 -0.49317,-0.15869 -0.74707,-0.15869 l -0.15625,0 0,-0.14649 c 0.25716,-0.0326 0.51513,-0.12532 0.77392,-0.27832 0.25879,-0.15299 0.44678,-0.33691 0.56397,-0.55176 0.11718,-0.21484 0.17578,-0.45084 0.17578,-0.708 0,-0.33529 -0.10498,-0.60628 -0.31494,-0.81299 -0.20996,-0.2067 -0.47119,-0.31006 -0.78369,-0.31006 -0.50456,0 -0.92611,0.27019 -1.26465,0.81055 z"
         id="path3245"
         inkscape:connector-curvature="0" />
    </g>
    <g
       style="font-size:16px;font-style:normal;font-weight:normal;line-height:125%;letter-spacing:0px;word-spacing:0px;fill:#000000;fill-opacity:1;stroke:none;font-family:symbol;-inkscape-font-specification:symbol"
       id="text3120"
       transform="translate(2,-2)">
      <path
         d="m 89.90625,722.36218 4.398437,-11.45312 1.632813,0 4.6875,11.45312 -1.726563,0 -1.335937,-3.46875 -4.789063,0 -1.257812,3.46875 z m 3.304687,-4.70312 3.882813,0 -1.195313,-3.17188 c -0.364588,-0.96353 -0.635422,-1.7552 -0.8125,-2.375 -0.145838,0.73439 -0.351567,1.46355 -0.617187,2.1875 z"
         id="path3236"
         inkscape:connector-curvature="0" />
      <path
         d="m 109.60938,722.36218 3.03125,-4.3125 -2.80469,-3.98437 1.75781,0 1.27344,1.94531 c 0.23958,0.3698 0.43229,0.67969 0.57812,0.92969 0.22916,-0.34375 0.4401,-0.64843 0.63282,-0.91406 l 1.39843,-1.96094 1.67969,0 -2.86719,3.90625 3.08594,4.39062 -1.72656,0 -1.70313,-2.57812 -0.45312,-0.69531 -2.17969,3.27343 z"
         id="path3238"
         inkscape:connector-curvature="0" />
      <path
         d="m 134.82031,715.62781 -7.5625,0 0,-1.3125 7.5625,0 z m 0,3.47656 -7.5625,0 0,-1.3125 7.5625,0 z"
         id="path3240"
         inkscape:connector-curvature="0" />
      <path
         d="m 146.9375,722.36218 -1.30469,0 0,-11.45312 1.40625,0 0,4.08594 c 0.59375,-0.74479 1.35156,-1.11718 2.27344,-1.11719 0.51041,1e-5 0.99348,0.10287 1.44922,0.30859 0.45572,0.20574 0.83072,0.4948 1.125,0.86719 0.29426,0.3724 0.52473,0.82162 0.6914,1.34766 0.16666,0.52604 0.25,1.08854 0.25,1.6875 0,1.42187 -0.35157,2.52083 -1.05468,3.29687 -0.70313,0.77604 -1.54688,1.16406 -2.53125,1.16406 -0.97917,0 -1.7474,-0.40885 -2.30469,-1.22656 z m -0.0156,-4.21093 c 0,0.99479 0.13542,1.71354 0.40625,2.15625 0.44271,0.72395 1.04167,1.08593 1.79688,1.08593 0.61458,0 1.14583,-0.26692 1.59375,-0.80078 0.44791,-0.53385 0.67187,-1.32942 0.67187,-2.38672 0,-1.08333 -0.21485,-1.8828 -0.64453,-2.39843 -0.42969,-0.51562 -0.94922,-0.77344 -1.55859,-0.77344 -0.61459,0 -1.14584,0.26693 -1.59375,0.80078 -0.44792,0.53386 -0.67188,1.30599 -0.67188,2.31641 z"
         id="path3242"
         inkscape:connector-curvature="0" />
    </g>
    <g
       style="font-size:16px;font-style:normal;font-weight:normal;line-height:125%;letter-spacing:0px;word-spacing:0px;fill:#000000;fill-opacity:1;stroke:none;font-family:symbol;-inkscape-font-specification:symbol"
       id="text3124"
       transform="translate(2,-2)">
      <path
         d="m 293.90625,722.36218 4.39844,-11.45312 1.63281,0 4.6875,11.45312 -1.72656,0 -1.33594,-3.46875 -4.78906,0 -1.25782,3.46875 z m 3.30469,-4.70312 3.88281,0 -1.19531,-3.17188 c -0.36459,-0.96353 -0.63542,-1.7552 -0.8125,-2.375 -0.14584,0.73439 -0.35157,1.46355 -0.61719,2.1875 z"
         id="path3227"
         inkscape:connector-curvature="0" />
      <path
         d="m 313.60937,722.36218 3.03125,-4.3125 -2.80468,-3.98437 1.75781,0 1.27344,1.94531 c 0.23958,0.3698 0.43229,0.67969 0.57812,0.92969 0.22916,-0.34375 0.4401,-0.64843 0.63281,-0.91406 l 1.39844,-1.96094 1.67969,0 -2.86719,3.90625 3.08594,4.39062 -1.72656,0 -1.70313,-2.57812 -0.45312,-0.69531 -2.17969,3.27343 z"
         id="path3229"
         inkscape:connector-curvature="0" />
      <path
         d="m 338.82031,715.62781 -7.5625,0 0,-1.3125 7.5625,0 z m 0,3.47656 -7.5625,0 0,-1.3125 7.5625,0 z"
         id="path3231"
         inkscape:connector-curvature="0" />
      <path
         d="m 350.9375,722.36218 -1.30469,0 0,-11.45312 1.40625,0 0,4.08594 c 0.59375,-0.74479 1.35156,-1.11718 2.27344,-1.11719 0.51041,1e-5 0.99348,0.10287 1.44922,0.30859 0.45572,0.20574 0.83072,0.4948 1.125,0.86719 0.29426,0.3724 0.52473,0.82162 0.6914,1.34766 0.16666,0.52604 0.25,1.08854 0.25,1.6875 0,1.42187 -0.35157,2.52083 -1.05468,3.29687 -0.70313,0.77604 -1.54688,1.16406 -2.53125,1.16406 -0.97917,0 -1.7474,-0.40885 -2.30469,-1.22656 z m -0.0156,-4.21093 c 0,0.99479 0.13542,1.71354 0.40625,2.15625 0.44271,0.72395 1.04167,1.08593 1.79688,1.08593 0.61458,0 1.14583,-0.26692 1.59375,-0.80078 0.44791,-0.53385 0.67187,-1.32942 0.67187,-2.38672 0,-1.08333 -0.21485,-1.8828 -0.64453,-2.39843 -0.42969,-0.51562 -0.94922,-0.77344 -1.55859,-0.77344 -0.61459,0 -1.14584,0.26693 -1.59375,0.80078 -0.44792,0.53386 -0.67188,1.30599 -0.67188,2.31641 z"
         id="path3233"
         inkscape:connector-curvature="0" />
    </g>
    <g
       style="font-size:16px;font-style:normal;font-weight:normal;line-height:125%;letter-spacing:0px;word-spacing:0px;fill:#000000;fill-opacity:1;stroke:none;font-family:symbol;-inkscape-font-specification:symbol"
       id="text3128"
       transform="translate(2,-2)">
      <path
         d="m 493.90625,722.36218 4.39844,-11.45312 1.63281,0 4.6875,11.45312 -1.72656,0 -1.33594,-3.46875 -4.78906,0 -1.25782,3.46875 z m 3.30469,-4.70312 3.88281,0 -1.19531,-3.17188 c -0.36459,-0.96353 -0.63542,-1.7552 -0.8125,-2.375 -0.14584,0.73439 -0.35157,1.46355 -0.61719,2.1875 z"
         id="path3218"
         inkscape:connector-curvature="0" />
      <path
         d="m 513.60937,722.36218 3.03125,-4.3125 -2.80468,-3.98437 1.75781,0 1.27344,1.94531 c 0.23958,0.3698 0.43229,0.67969 0.57812,0.92969 0.22916,-0.34375 0.4401,-0.64843 0.63281,-0.91406 l 1.39844,-1.96094 1.67969,0 -2.86719,3.90625 3.08594,4.39062 -1.72656,0 -1.70313,-2.57812 -0.45312,-0.69531 -2.17969,3.27343 z"
         id="path3220"
         inkscape:connector-curvature="0" />
      <path
         d="m 538.82031,715.62781 -7.5625,0 0,-1.3125 7.5625,0 z m 0,3.47656 -7.5625,0 0,-1.3125 7.5625,0 z"
         id="path3222"
         inkscape:connector-curvature="0" />
      <path
         d="m 550.9375,722.36218 -1.30469,0 0,-11.45312 1.40625,0 0,4.08594 c 0.59375,-0.74479 1.35156,-1.11718 2.27344,-1.11719 0.51041,1e-5 0.99348,0.10287 1.44922,0.30859 0.45572,0.20574 0.83072,0.4948 1.125,0.86719 0.29426,0.3724 0.52473,0.82162 0.6914,1.34766 0.16666,0.52604 0.25,1.08854 0.25,1.6875 0,1.42187 -0.35157,2.52083 -1.05468,3.29687 -0.70313,0.77604 -1.54688,1.16406 -2.53125,1.16406 -0.97917,0 -1.7474,-0.40885 -2.30469,-1.22656 z m -0.0156,-4.21093 c 0,0.99479 0.13542,1.71354 0.40625,2.15625 0.44271,0.72395 1.04167,1.08593 1.79688,1.08593 0.61458,0 1.14583,-0.26692 1.59375,-0.80078 0.44791,-0.53385 0.67187,-1.32942 0.67187,-2.38672 0,-1.08333 -0.21485,-1.8828 -0.64453,-2.39843 -0.42969,-0.51562 -0.94922,-0.77344 -1.55859,-0.77344 -0.61459,0 -1.14584,0.26693 -1.59375,0.80078 -0.44792,0.53386 -0.67188,1.30599 -0.67188,2.31641 z"
         id="path3224"
         inkscape:connector-curvature="0" />
    </g>
    <g
       style="font-size:10px;font-style:normal;font-weight:normal;line-height:125%;letter-spacing:0px;word-spacing:0px;fill:#000000;fill-opacity:1;stroke:none;font-family:Times New Roman;-inkscape-font-specification:Times New Roman"
       id="text3132"
       transform="translate(2,-2)">
      <path
         d="m 118.00001,708.87878 1.61133,-0.78613 0.16113,0 0,5.59082 c 0,0.3711 0.0155,0.60222 0.0464,0.69336 0.0309,0.0911 0.0952,0.16113 0.19287,0.20996 0.0977,0.0488 0.29622,0.0765 0.5957,0.083 l 0,0.18066 -2.49023,0 0,-0.18066 c 0.31249,-0.007 0.51432,-0.0334 0.60546,-0.0806 0.0911,-0.0472 0.15462,-0.11067 0.19043,-0.19043 0.0358,-0.0798 0.0537,-0.31819 0.0537,-0.71533 l 0,-3.57422 c 0,-0.48176 -0.0163,-0.79101 -0.0488,-0.92773 -0.0228,-0.10416 -0.0643,-0.18066 -0.12452,-0.22949 -0.0602,-0.0488 -0.13265,-0.0732 -0.21728,-0.0733 -0.12044,10e-6 -0.28809,0.0505 -0.50293,0.15137 z"
         id="path3215"
         inkscape:connector-curvature="0" />
    </g>
    <g
       style="font-size:10px;font-style:normal;font-weight:normal;line-height:125%;letter-spacing:0px;word-spacing:0px;fill:#000000;fill-opacity:1;stroke:none;font-family:Times New Roman;-inkscape-font-specification:Times New Roman"
       id="text3136"
       transform="translate(2,-2)">
      <path
         d="m 326.10937,712.46667 -0.46386,1.27442 -3.90625,0 0,-0.18067 c 1.14908,-1.04817 1.958,-1.90429 2.42676,-2.56835 0.46874,-0.66406 0.70312,-1.27116 0.70312,-1.82129 0,-0.41992 -0.12858,-0.76497 -0.38574,-1.03516 -0.25717,-0.27018 -0.56478,-0.40527 -0.92285,-0.40527 -0.32553,0 -0.61768,0.0952 -0.87647,0.28564 -0.25879,0.19044 -0.45003,0.46957 -0.57373,0.8374 l -0.18066,0 c 0.0814,-0.6022 0.29052,-1.06444 0.62744,-1.38672 0.33691,-0.32225 0.75765,-0.48339 1.26221,-0.48339 0.5371,0 0.98551,0.17253 1.34521,0.51757 0.3597,0.34506 0.53955,0.75196 0.53955,1.22071 0,0.33529 -0.0781,0.67057 -0.23437,1.00586 -0.24089,0.52734 -0.63152,1.08561 -1.17188,1.6748 -0.81055,0.88542 -1.31673,1.41927 -1.51855,1.60156 l 1.72851,0 c 0.35156,0 0.59814,-0.013 0.73975,-0.0391 0.1416,-0.026 0.26936,-0.0789 0.3833,-0.15869 0.11393,-0.0797 0.21321,-0.19287 0.29785,-0.33936 z"
         id="path3212"
         inkscape:connector-curvature="0" />
    </g>
    <g
       style="font-size:10px;font-style:normal;font-weight:normal;line-height:125%;letter-spacing:0px;word-spacing:0px;fill:#000000;fill-opacity:1;stroke:none;font-family:Times New Roman;-inkscape-font-specification:Times New Roman"
       id="text3140"
       transform="translate(2,-2)">
      <path
         d="m 522.03223,708.37976 c 0.1888,-0.44596 0.42724,-0.79019 0.71533,-1.03271 0.28808,-0.24251 0.64697,-0.36377 1.07666,-0.36377 0.53059,0 0.9375,0.17253 1.2207,0.51757 0.21484,0.25717 0.32226,0.53224 0.32227,0.8252 -1e-5,0.48178 -0.30274,0.97982 -0.90821,1.49414 0.4069,0.15951 0.71452,0.38737 0.92286,0.68359 0.20833,0.29623 0.31249,0.64454 0.3125,1.04493 -10e-6,0.57291 -0.1823,1.06933 -0.54688,1.48925 -0.47526,0.54688 -1.16374,0.82032 -2.06543,0.82032 -0.44596,0 -0.74951,-0.0553 -0.91064,-0.16602 -0.16114,-0.11068 -0.2417,-0.22949 -0.2417,-0.35644 0,-0.0944 0.0382,-0.17741 0.11474,-0.24903 0.0765,-0.0716 0.16846,-0.10742 0.27588,-0.10742 0.0814,0 0.16439,0.013 0.24903,0.0391 0.0553,0.0163 0.18066,0.0757 0.37597,0.17823 0.19531,0.10253 0.3304,0.16357 0.40528,0.1831 0.12044,0.0358 0.24902,0.0537 0.38574,0.0537 0.33203,0 0.62093,-0.12858 0.8667,-0.38574 0.24576,-0.25716 0.36865,-0.56152 0.36865,-0.91309 0,-0.25716 -0.057,-0.50781 -0.1709,-0.75195 -0.0846,-0.18229 -0.17741,-0.32063 -0.27832,-0.41504 -0.13998,-0.1302 -0.33203,-0.24821 -0.57617,-0.354 -0.24414,-0.10579 -0.49317,-0.15869 -0.74707,-0.15869 l -0.15625,0 0,-0.14649 c 0.25716,-0.0326 0.51513,-0.12532 0.77392,-0.27832 0.25879,-0.15299 0.44678,-0.33691 0.56397,-0.55176 0.11718,-0.21484 0.17578,-0.45084 0.17578,-0.708 0,-0.33529 -0.10498,-0.60628 -0.31494,-0.81299 -0.20996,-0.2067 -0.47119,-0.31006 -0.78369,-0.31006 -0.50456,0 -0.92611,0.27019 -1.26465,0.81055 z"
         id="path3209"
         inkscape:connector-curvature="0" />
    </g>
    <g
       style="font-size:10px;font-style:normal;font-weight:normal;line-height:125%;letter-spacing:0px;word-spacing:0px;fill:#000000;fill-opacity:1;stroke:none;font-family:Times New Roman;-inkscape-font-specification:Times New Roman"
       id="text3144"
       transform="translate(2,-2)">
      <path
         d="m 154,708.87878 1.61133,-0.78613 0.16113,0 0,5.59082 c 0,0.3711 0.0155,0.60222 0.0464,0.69336 0.0309,0.0911 0.0952,0.16113 0.19287,0.20996 0.0977,0.0488 0.29622,0.0765 0.5957,0.083 l 0,0.18066 -2.49023,0 0,-0.18066 c 0.3125,-0.007 0.51432,-0.0334 0.60547,-0.0806 0.0911,-0.0472 0.15462,-0.11067 0.19043,-0.19043 0.0358,-0.0798 0.0537,-0.31819 0.0537,-0.71533 l 0,-3.57422 c -1e-5,-0.48176 -0.0163,-0.79101 -0.0488,-0.92773 -0.0228,-0.10416 -0.0643,-0.18066 -0.12451,-0.22949 -0.0602,-0.0488 -0.13265,-0.0732 -0.21729,-0.0733 -0.12044,10e-6 -0.28809,0.0505 -0.50293,0.15137 z"
         id="path3206"
         inkscape:connector-curvature="0" />
    </g>
    <g
       style="font-size:10px;font-style:normal;font-weight:normal;line-height:125%;letter-spacing:0px;word-spacing:0px;fill:#000000;fill-opacity:1;stroke:none;font-family:Times New Roman;-inkscape-font-specification:Times New Roman"
       id="text3148"
       transform="translate(2,-2)">
      <path
         d="m 362.10937,712.46667 -0.46386,1.27442 -3.90625,0 0,-0.18067 c 1.14908,-1.04817 1.958,-1.90429 2.42676,-2.56835 0.46874,-0.66406 0.70312,-1.27116 0.70312,-1.82129 0,-0.41992 -0.12858,-0.76497 -0.38574,-1.03516 -0.25717,-0.27018 -0.56478,-0.40527 -0.92285,-0.40527 -0.32553,0 -0.61768,0.0952 -0.87647,0.28564 -0.25879,0.19044 -0.45003,0.46957 -0.57373,0.8374 l -0.18066,0 c 0.0814,-0.6022 0.29052,-1.06444 0.62744,-1.38672 0.33691,-0.32225 0.75765,-0.48339 1.26221,-0.48339 0.5371,0 0.98551,0.17253 1.34521,0.51757 0.3597,0.34506 0.53955,0.75196 0.53955,1.22071 0,0.33529 -0.0781,0.67057 -0.23437,1.00586 -0.24089,0.52734 -0.63152,1.08561 -1.17188,1.6748 -0.81055,0.88542 -1.31673,1.41927 -1.51855,1.60156 l 1.72851,0 c 0.35156,0 0.59814,-0.013 0.73975,-0.0391 0.1416,-0.026 0.26936,-0.0789 0.3833,-0.15869 0.11393,-0.0797 0.21321,-0.19287 0.29785,-0.33936 z"
         id="path3203"
         inkscape:connector-curvature="0" />
    </g>
    <g
       style="font-size:10px;font-style:normal;font-weight:normal;line-height:125%;letter-spacing:0px;word-spacing:0px;fill:#000000;fill-opacity:1;stroke:none;font-family:Times New Roman;-inkscape-font-specification:Times New Roman"
       id="text3152"
       transform="translate(2,-2)">
      <path
         d="m 558.03223,708.37976 c 0.1888,-0.44596 0.42724,-0.79019 0.71533,-1.03271 0.28808,-0.24251 0.64697,-0.36377 1.07666,-0.36377 0.53059,0 0.9375,0.17253 1.2207,0.51757 0.21484,0.25717 0.32226,0.53224 0.32227,0.8252 -1e-5,0.48178 -0.30274,0.97982 -0.90821,1.49414 0.4069,0.15951 0.71452,0.38737 0.92286,0.68359 0.20833,0.29623 0.31249,0.64454 0.3125,1.04493 -10e-6,0.57291 -0.1823,1.06933 -0.54688,1.48925 -0.47526,0.54688 -1.16374,0.82032 -2.06543,0.82032 -0.44596,0 -0.74951,-0.0553 -0.91064,-0.16602 -0.16114,-0.11068 -0.2417,-0.22949 -0.2417,-0.35644 0,-0.0944 0.0382,-0.17741 0.11474,-0.24903 0.0765,-0.0716 0.16846,-0.10742 0.27588,-0.10742 0.0814,0 0.16439,0.013 0.24903,0.0391 0.0553,0.0163 0.18066,0.0757 0.37597,0.17823 0.19531,0.10253 0.3304,0.16357 0.40528,0.1831 0.12044,0.0358 0.24902,0.0537 0.38574,0.0537 0.33203,0 0.62093,-0.12858 0.8667,-0.38574 0.24576,-0.25716 0.36865,-0.56152 0.36865,-0.91309 0,-0.25716 -0.057,-0.50781 -0.1709,-0.75195 -0.0846,-0.18229 -0.17741,-0.32063 -0.27832,-0.41504 -0.13998,-0.1302 -0.33203,-0.24821 -0.57617,-0.354 -0.24414,-0.10579 -0.49317,-0.15869 -0.74707,-0.15869 l -0.15625,0 0,-0.14649 c 0.25716,-0.0326 0.51513,-0.12532 0.77392,-0.27832 0.25879,-0.15299 0.44678,-0.33691 0.56397,-0.55176 0.11718,-0.21484 0.17578,-0.45084 0.17578,-0.708 0,-0.33529 -0.10498,-0.60628 -0.31494,-0.81299 -0.20996,-0.2067 -0.47119,-0.31006 -0.78369,-0.31006 -0.50456,0 -0.92611,0.27019 -1.26465,0.81055 z"
         id="path3200"
         inkscape:connector-curvature="0" />
    </g>
  </g>
</svg>
