<?xml version="1.0" encoding="UTF-8" standalone="no"?>
<!-- Created with Inkscape (http://www.inkscape.org/) -->

<svg
   xmlns:dc="http://purl.org/dc/elements/1.1/"
   xmlns:cc="http://creativecommons.org/ns#"
   xmlns:rdf="http://www.w3.org/1999/02/22-rdf-syntax-ns#"
   xmlns:svg="http://www.w3.org/2000/svg"
   xmlns="http://www.w3.org/2000/svg"
   xmlns:sodipodi="http://sodipodi.sourceforge.net/DTD/sodipodi-0.dtd"
   xmlns:inkscape="http://www.inkscape.org/namespaces/inkscape"
   width="217.26099"
   height="219.90953"
   id="svg2"
   version="1.1"
   inkscape:version="0.48.4 r9939"
   sodipodi:docname="quadmesh4x4cells.svg">
  <defs
     id="defs4" />
  <sodipodi:namedview
     id="base"
     pagecolor="#ffffff"
     bordercolor="#666666"
     borderopacity="1.0"
     inkscape:pageopacity="0.0"
     inkscape:pageshadow="2"
     inkscape:zoom="3.1586084"
     inkscape:cx="185.89242"
     inkscape:cy="109.84485"
     inkscape:document-units="px"
     inkscape:current-layer="layer1"
     showgrid="true"
     units="px"
     inkscape:snap-global="true"
     objecttolerance="20"
     inkscape:snap-grids="true"
     inkscape:snap-to-guides="false"
     inkscape:snap-bbox="true"
     inkscape:snap-bbox-edge-midpoints="false"
     inkscape:snap-bbox-midpoints="false"
     inkscape:bbox-nodes="true"
     inkscape:bbox-paths="false"
     inkscape:object-paths="true"
     inkscape:object-nodes="true"
     inkscape:window-width="1920"
     inkscape:window-height="1018"
     inkscape:window-x="-8"
     inkscape:window-y="-8"
     inkscape:window-maximized="1"
     fit-margin-top="0"
     fit-margin-left="0"
     fit-margin-right="0"
     fit-margin-bottom="0"
     inkscape:snap-object-midpoints="true">
    <inkscape:grid
       type="xygrid"
       id="grid2987"
       empspacing="5"
       visible="true"
       enabled="true"
       snapvisiblegridlinesonly="true"
       spacingx="10px"
       spacingy="10px"
       originx="-138.23901px"
       originy="-585.59047px" />
  </sodipodi:namedview>
  <metadata
     id="metadata7">
    <rdf:RDF>
      <cc:Work
         rdf:about="">
        <dc:format>image/svg+xml</dc:format>
        <dc:type
           rdf:resource="http://purl.org/dc/dcmitype/StillImage" />
        <dc:title></dc:title>
      </cc:Work>
    </rdf:RDF>
  </metadata>
  <g
     inkscape:label="Ebene 1"
     inkscape:groupmode="layer"
     id="layer1"
     transform="translate(-138.23901,-246.86208)">
    <rect
       style="fill:none;stroke:#000000;stroke-width:1;stroke-miterlimit:4;stroke-dasharray:none"
       id="rect3971"
       width="50"
       height="50"
       x="150"
       y="252.36218"
       transform="translate(0,-1.0261719e-4)" />
    <rect
       y="252.36208"
       x="200"
       height="50"
       width="50"
       id="rect3973"
       style="fill:none;stroke:#000000;stroke-width:1;stroke-miterlimit:4;stroke-dasharray:none" />
    <rect
       style="fill:none;stroke:#000000;stroke-width:1;stroke-miterlimit:4;stroke-dasharray:none"
       id="rect3975"
       width="50"
       height="50"
       x="250"
       y="252.36208" />
    <rect
       y="252.36208"
       x="300"
       height="50"
       width="50"
       id="rect3977"
       style="fill:none;stroke:#000000;stroke-width:1;stroke-miterlimit:4;stroke-dasharray:none" />
    <rect
       y="302.36209"
       x="150"
       height="50"
       width="50"
       id="rect3979"
       style="fill:none;stroke:#000000;stroke-width:1;stroke-miterlimit:4;stroke-dasharray:none" />
    <rect
       style="fill:none;stroke:#000000;stroke-width:1;stroke-miterlimit:4;stroke-dasharray:none"
       id="rect3981"
       width="50"
       height="50"
       x="200"
       y="302.36206" />
    <rect
       y="302.36206"
       x="250"
       height="50"
       width="50"
       id="rect3983"
       style="fill:none;stroke:#000000;stroke-width:1;stroke-miterlimit:4;stroke-dasharray:none" />
    <rect
       style="fill:none;stroke:#000000;stroke-width:1;stroke-miterlimit:4;stroke-dasharray:none"
       id="rect3985"
       width="50"
       height="50"
       x="300"
       y="302.36206" />
    <rect
       y="352.36209"
       x="150"
       height="50"
       width="50"
       id="rect3987"
       style="fill:none;stroke:#000000;stroke-width:1;stroke-miterlimit:4;stroke-dasharray:none" />
    <rect
       style="fill:none;stroke:#000000;stroke-width:1;stroke-miterlimit:4;stroke-dasharray:none"
       id="rect3989"
       width="50"
       height="50"
       x="200"
       y="352.36206" />
    <rect
       y="352.36206"
       x="250"
       height="50"
       width="50"
       id="rect3991"
       style="fill:none;stroke:#000000;stroke-width:1;stroke-miterlimit:4;stroke-dasharray:none" />
    <rect
       style="fill:none;stroke:#000000;stroke-width:1;stroke-miterlimit:4;stroke-dasharray:none"
       id="rect3993"
       width="50"
       height="50"
       x="300"
       y="352.36206" />
    <rect
       style="fill:none;stroke:#000000;stroke-width:1;stroke-miterlimit:4;stroke-dasharray:none"
       id="rect3995"
       width="50"
       height="50"
       x="150"
       y="402.36209" />
    <rect
       y="402.36206"
       x="200"
       height="50"
       width="50"
       id="rect3997"
       style="fill:none;stroke:#000000;stroke-width:1;stroke-miterlimit:4;stroke-dasharray:none" />
    <rect
       style="fill:none;stroke:#000000;stroke-width:1;stroke-miterlimit:4;stroke-dasharray:none"
       id="rect3999"
       width="50"
       height="50"
       x="250"
       y="402.36206" />
    <rect
       y="402.36206"
       x="300"
       height="50"
       width="50"
       id="rect4001"
       style="fill:none;stroke:#000000;stroke-width:1;stroke-miterlimit:4;stroke-dasharray:none" />
    <text
       xml:space="preserve"
       style="font-size:10px;font-style:normal;font-weight:normal;line-height:125%;letter-spacing:0px;word-spacing:0px;fill:#000000;fill-opacity:1;stroke:none;font-family:Times New Roman;-inkscape-font-specification:Times New Roman"
       x="246.21059"
       y="454.9624"
       id="text4011"
       sodipodi:linespacing="125%"><tspan
         sodipodi:role="line"
         id="tspan4013"
         x="246.21059"
         y="454.9624"> </tspan></text>
    <flowRoot
       xml:space="preserve"
       id="flowRoot4015"
       style="font-size:10px;font-style:normal;font-weight:normal;line-height:125%;letter-spacing:0px;word-spacing:0px;fill:#000000;fill-opacity:1;stroke:none;font-family:Times New Roman;-inkscape-font-specification:Times New Roman"><flowRegion
         id="flowRegion4017"><rect
           id="rect4019"
           width="16.146351"
           height="13.61359"
           x="217.81744"
           y="426.77023" /></flowRegion><flowPara
         id="flowPara4021" /></flowRoot>    <flowRoot
       xml:space="preserve"
       id="flowRoot4023"
       style="font-size:10px;font-style:normal;font-weight:normal;line-height:125%;letter-spacing:0px;word-spacing:0px;fill:#000000;fill-opacity:1;stroke:none;font-family:Times New Roman;-inkscape-font-specification:Times New Roman"><flowRegion
         id="flowRegion4025"><rect
           id="rect4027"
           width="22.794849"
           height="15.513161"
           x="215.28468"
           y="424.55405" /></flowRegion><flowPara
         id="flowPara4029" /></flowRoot>    <text
       xml:space="preserve"
       style="font-size:10px;font-style:normal;font-weight:normal;line-height:125%;letter-spacing:0px;word-spacing:0px;fill:#000000;fill-opacity:1;stroke:none;font-family:Times New Roman;-inkscape-font-specification:Times New Roman"
       x="170.01158"
       y="432.46893"
       id="text4031"
       sodipodi:linespacing="125%"
       transform="translate(0,-1.0261719e-4)"><tspan
         sodipodi:role="line"
         id="tspan4033"
         x="170.01158"
         y="432.46893">1</tspan></text>
    <text
       xml:space="preserve"
       style="font-size:10px;font-style:normal;font-weight:normal;line-height:125%;letter-spacing:0px;word-spacing:0px;fill:#000000;fill-opacity:1;stroke:none;font-family:Times New Roman;-inkscape-font-specification:Times New Roman"
       x="220.03362"
       y="432.46893"
       id="text4035"
       sodipodi:linespacing="125%"
       transform="translate(0,-1.0261719e-4)"><tspan
         sodipodi:role="line"
         id="tspan4037"
         x="220.03362"
         y="432.46893">2</tspan></text>
    <text
       xml:space="preserve"
       style="font-size:10px;font-style:normal;font-weight:normal;line-height:125%;letter-spacing:0px;word-spacing:0px;fill:#000000;fill-opacity:1;stroke:none;font-family:Times New Roman;-inkscape-font-specification:Times New Roman"
       x="270.05563"
       y="432.78552"
       id="text4039"
       sodipodi:linespacing="125%"
       transform="translate(0,-1.0261719e-4)"><tspan
         sodipodi:role="line"
         id="tspan4041"
         x="270.05563"
         y="432.78552">3</tspan></text>
    <text
       xml:space="preserve"
       style="font-size:10px;font-style:normal;font-weight:normal;line-height:125%;letter-spacing:0px;word-spacing:0px;fill:#000000;fill-opacity:1;stroke:none;font-family:Times New Roman;-inkscape-font-specification:Times New Roman"
       x="320.07767"
       y="432.78552"
       id="text4043"
       sodipodi:linespacing="125%"
       transform="translate(0,-1.0261719e-4)"><tspan
         sodipodi:role="line"
         id="tspan4045"
         x="320.07767"
         y="432.78552">4</tspan></text>
    <text
       xml:space="preserve"
       style="font-size:10px;font-style:normal;font-weight:normal;line-height:125%;letter-spacing:0px;word-spacing:0px;fill:#000000;fill-opacity:1;stroke:none;font-family:Times New Roman;-inkscape-font-specification:Times New Roman"
       x="170.01158"
       y="382.13031"
       id="text4047"
       sodipodi:linespacing="125%"
       transform="translate(0,-1.0261719e-4)"><tspan
         sodipodi:role="line"
         id="tspan4049"
         x="170.01158"
         y="382.13031">5</tspan></text>
    <text
       xml:space="preserve"
       style="font-size:10px;font-style:normal;font-weight:normal;line-height:125%;letter-spacing:0px;word-spacing:0px;fill:#000000;fill-opacity:1;stroke:none;font-family:Times New Roman;-inkscape-font-specification:Times New Roman"
       x="220.3502"
       y="382.76349"
       id="text4051"
       sodipodi:linespacing="125%"
       transform="translate(0,-1.0261719e-4)"><tspan
         sodipodi:role="line"
         id="tspan4053"
         x="220.3502"
         y="382.76349">6</tspan></text>
    <text
       xml:space="preserve"
       style="font-size:10px;font-style:normal;font-weight:normal;line-height:125%;letter-spacing:0px;word-spacing:0px;fill:#000000;fill-opacity:1;stroke:none;font-family:Times New Roman;-inkscape-font-specification:Times New Roman"
       x="269.73904"
       y="382.76349"
       id="text4055"
       sodipodi:linespacing="125%"
       transform="translate(0,-1.0261719e-4)"><tspan
         sodipodi:role="line"
         id="tspan4057"
         x="269.73904"
         y="382.76349">7</tspan></text>
    <text
       xml:space="preserve"
       style="font-size:10px;font-style:normal;font-weight:normal;line-height:125%;letter-spacing:0px;word-spacing:0px;fill:#000000;fill-opacity:1;stroke:none;font-family:Times New Roman;-inkscape-font-specification:Times New Roman"
       x="320.07767"
       y="382.76349"
       id="text4059"
       sodipodi:linespacing="125%"
       transform="translate(0,-1.0261719e-4)"><tspan
         sodipodi:role="line"
         id="tspan4061"
         x="320.07767"
         y="382.76349">8</tspan></text>
    <text
       xml:space="preserve"
       style="font-size:10px;font-style:normal;font-weight:normal;line-height:125%;letter-spacing:0px;word-spacing:0px;fill:#000000;fill-opacity:1;stroke:none;font-family:Times New Roman;-inkscape-font-specification:Times New Roman"
       x="170.01158"
       y="331.79169"
       id="text4063"
       sodipodi:linespacing="125%"
       transform="translate(0,-1.0261719e-4)"><tspan
         sodipodi:role="line"
         id="tspan4065"
         x="170.01158"
         y="331.79169">9</tspan></text>
    <text
       xml:space="preserve"
       style="font-size:10px;font-style:normal;font-weight:normal;line-height:125%;letter-spacing:0px;word-spacing:0px;fill:#000000;fill-opacity:1;stroke:none;font-family:Times New Roman;-inkscape-font-specification:Times New Roman"
       x="220.3502"
       y="332.74146"
       id="text4067"
       sodipodi:linespacing="125%"
       transform="translate(0,-1.0261719e-4)"><tspan
         sodipodi:role="line"
         id="tspan4069"
         x="220.3502"
         y="332.74146">10</tspan></text>
    <text
       xml:space="preserve"
       style="font-size:10px;font-style:normal;font-weight:normal;line-height:125%;letter-spacing:0px;word-spacing:0px;fill:#000000;fill-opacity:1;stroke:none;font-family:Times New Roman;-inkscape-font-specification:Times New Roman"
       x="270.37222"
       y="332.42487"
       id="text4071"
       sodipodi:linespacing="125%"
       transform="translate(0,-1.0261719e-4)"><tspan
         sodipodi:role="line"
         id="tspan4073"
         x="270.37222"
         y="332.42487">11</tspan></text>
    <text
       xml:space="preserve"
       style="font-size:10px;font-style:normal;font-weight:normal;line-height:125%;letter-spacing:0px;word-spacing:0px;fill:#000000;fill-opacity:1;stroke:none;font-family:Times New Roman;-inkscape-font-specification:Times New Roman"
       x="320.07767"
       y="333.05807"
       id="text4075"
       sodipodi:linespacing="125%"
       transform="translate(0,-1.0261719e-4)"><tspan
         sodipodi:role="line"
         id="tspan4077"
         x="320.07767"
         y="333.05807">12</tspan></text>
    <text
       xml:space="preserve"
       style="font-size:10px;font-style:normal;font-weight:normal;line-height:125%;letter-spacing:0px;word-spacing:0px;fill:#000000;fill-opacity:1;stroke:none;font-family:Times New Roman;-inkscape-font-specification:Times New Roman"
       x="170.01158"
       y="282.40286"
       id="text4079"
       sodipodi:linespacing="125%"
       transform="translate(0,-1.0261719e-4)"><tspan
         sodipodi:role="line"
         id="tspan4081"
         x="170.01158"
         y="282.40286">13</tspan></text>
    <text
       xml:space="preserve"
       style="font-size:10px;font-style:normal;font-weight:normal;line-height:125%;letter-spacing:0px;word-spacing:0px;fill:#000000;fill-opacity:1;stroke:none;font-family:Times New Roman;-inkscape-font-specification:Times New Roman"
       x="220.03362"
       y="282.71945"
       id="text4083"
       sodipodi:linespacing="125%"
       transform="translate(0,-1.0261719e-4)"><tspan
         sodipodi:role="line"
         id="tspan4085"
         x="220.03362"
         y="282.71945">14</tspan></text>
    <text
       xml:space="preserve"
       style="font-size:10px;font-style:normal;font-weight:normal;line-height:125%;letter-spacing:0px;word-spacing:0px;fill:#000000;fill-opacity:1;stroke:none;font-family:Times New Roman;-inkscape-font-specification:Times New Roman"
       x="270.37222"
       y="282.40286"
       id="text4087"
       sodipodi:linespacing="125%"
       transform="translate(0,-1.0261719e-4)"><tspan
         sodipodi:role="line"
         id="tspan4089"
         x="270.37222"
         y="282.40286">15</tspan></text>
    <text
       xml:space="preserve"
       style="font-size:10px;font-style:normal;font-weight:normal;line-height:125%;letter-spacing:0px;word-spacing:0px;fill:#000000;fill-opacity:1;stroke:none;font-family:Times New Roman;-inkscape-font-specification:Times New Roman"
       x="320.07767"
       y="282.40286"
       id="text4091"
       sodipodi:linespacing="125%"
       transform="translate(0,-1.0261719e-4)"><tspan
         sodipodi:role="line"
         id="tspan4093"
         x="320.07767"
         y="282.40286">16</tspan></text>
    <path
       sodipodi:type="arc"
       style="fill:#000000;stroke:#000000;stroke-width:1;stroke-miterlimit:4;stroke-dasharray:none"
       id="path3129"
       sodipodi:cx="55.5"
       sodipodi:cy="46.399689"
       sodipodi:rx="5"
       sodipodi:ry="5"
       d="m 60.5,46.399689 c 0,2.761423 -2.238576,5 -5,5 -2.761424,0 -5,-2.238577 -5,-5 0,-2.761424 2.238576,-5 5,-5 2.761424,0 5,2.238576 5,5 z"
       transform="translate(94.5,205.96239)" />
    <path
       transform="translate(144.5,205.96239)"
       d="m 60.5,46.399689 c 0,2.761423 -2.238576,5 -5,5 -2.761424,0 -5,-2.238577 -5,-5 0,-2.761424 2.238576,-5 5,-5 2.761424,0 5,2.238576 5,5 z"
       sodipodi:ry="5"
       sodipodi:rx="5"
       sodipodi:cy="46.399689"
       sodipodi:cx="55.5"
       id="path3131"
       style="fill:#000000;stroke:#000000;stroke-width:1;stroke-miterlimit:4;stroke-dasharray:none"
       sodipodi:type="arc" />
    <path
       sodipodi:type="arc"
       style="fill:#000000;stroke:#000000;stroke-width:1;stroke-miterlimit:4;stroke-dasharray:none"
       id="path3133"
       sodipodi:cx="55.5"
       sodipodi:cy="46.399689"
       sodipodi:rx="5"
       sodipodi:ry="5"
       d="m 60.5,46.399689 c 0,2.761423 -2.238576,5 -5,5 -2.761424,0 -5,-2.238577 -5,-5 0,-2.761424 2.238576,-5 5,-5 2.761424,0 5,2.238576 5,5 z"
       transform="translate(194.5,205.96239)" />
    <path
       transform="translate(244.5,205.96239)"
       d="m 60.5,46.399689 c 0,2.761423 -2.238576,5 -5,5 -2.761424,0 -5,-2.238577 -5,-5 0,-2.761424 2.238576,-5 5,-5 2.761424,0 5,2.238576 5,5 z"
       sodipodi:ry="5"
       sodipodi:rx="5"
       sodipodi:cy="46.399689"
       sodipodi:cx="55.5"
       id="path3135"
       style="fill:#000000;stroke:#000000;stroke-width:1;stroke-miterlimit:4;stroke-dasharray:none"
       sodipodi:type="arc" />
    <path
       sodipodi:type="arc"
       style="fill:#000000;stroke:#000000;stroke-width:1;stroke-miterlimit:4;stroke-dasharray:none"
       id="path3137"
       sodipodi:cx="55.5"
       sodipodi:cy="46.399689"
       sodipodi:rx="5"
       sodipodi:ry="5"
       d="m 60.5,46.399689 c 0,2.761423 -2.238576,5 -5,5 -2.761424,0 -5,-2.238577 -5,-5 0,-2.761424 2.238576,-5 5,-5 2.761424,0 5,2.238576 5,5 z"
       transform="translate(294.5,205.96239)" />
    <path
       transform="translate(94.5,255.96239)"
       d="m 60.5,46.399689 c 0,2.761423 -2.238576,5 -5,5 -2.761424,0 -5,-2.238577 -5,-5 0,-2.761424 2.238576,-5 5,-5 2.761424,0 5,2.238576 5,5 z"
       sodipodi:ry="5"
       sodipodi:rx="5"
       sodipodi:cy="46.399689"
       sodipodi:cx="55.5"
       id="path3139"
       style="fill:#000000;stroke:#000000;stroke-width:1;stroke-miterlimit:4;stroke-dasharray:none"
       sodipodi:type="arc" />
    <path
       sodipodi:type="arc"
       style="fill:#000000;stroke:#000000;stroke-width:1;stroke-miterlimit:4;stroke-dasharray:none"
       id="path3141"
       sodipodi:cx="55.5"
       sodipodi:cy="46.399689"
       sodipodi:rx="5"
       sodipodi:ry="5"
       d="m 60.5,46.399689 c 0,2.761423 -2.238576,5 -5,5 -2.761424,0 -5,-2.238577 -5,-5 0,-2.761424 2.238576,-5 5,-5 2.761424,0 5,2.238576 5,5 z"
       transform="translate(144.5,255.96239)" />
    <path
       transform="translate(194.5,255.96239)"
       d="m 60.5,46.399689 c 0,2.761423 -2.238576,5 -5,5 -2.761424,0 -5,-2.238577 -5,-5 0,-2.761424 2.238576,-5 5,-5 2.761424,0 5,2.238576 5,5 z"
       sodipodi:ry="5"
       sodipodi:rx="5"
       sodipodi:cy="46.399689"
       sodipodi:cx="55.5"
       id="path3143"
       style="fill:#000000;stroke:#000000;stroke-width:1;stroke-miterlimit:4;stroke-dasharray:none"
       sodipodi:type="arc" />
    <path
       sodipodi:type="arc"
       style="fill:#000000;stroke:#000000;stroke-width:1;stroke-miterlimit:4;stroke-dasharray:none"
       id="path3145"
       sodipodi:cx="55.5"
       sodipodi:cy="46.399689"
       sodipodi:rx="5"
       sodipodi:ry="5"
       d="m 60.5,46.399689 c 0,2.761423 -2.238576,5 -5,5 -2.761424,0 -5,-2.238577 -5,-5 0,-2.761424 2.238576,-5 5,-5 2.761424,0 5,2.238576 5,5 z"
       transform="translate(244.5,255.96239)" />
    <path
       transform="translate(294.5,255.96239)"
       d="m 60.5,46.399689 c 0,2.761423 -2.238576,5 -5,5 -2.761424,0 -5,-2.238577 -5,-5 0,-2.761424 2.238576,-5 5,-5 2.761424,0 5,2.238576 5,5 z"
       sodipodi:ry="5"
       sodipodi:rx="5"
       sodipodi:cy="46.399689"
       sodipodi:cx="55.5"
       id="path3147"
       style="fill:#000000;stroke:#000000;stroke-width:1;stroke-miterlimit:4;stroke-dasharray:none"
       sodipodi:type="arc" />
    <path
       sodipodi:type="arc"
       style="fill:#000000;stroke:#000000;stroke-width:1;stroke-miterlimit:4;stroke-dasharray:none"
       id="path3149"
       sodipodi:cx="55.5"
       sodipodi:cy="46.399689"
       sodipodi:rx="5"
       sodipodi:ry="5"
       d="m 60.5,46.399689 c 0,2.761423 -2.238576,5 -5,5 -2.761424,0 -5,-2.238577 -5,-5 0,-2.761424 2.238576,-5 5,-5 2.761424,0 5,2.238576 5,5 z"
       transform="translate(94.5,305.96239)" />
    <path
       transform="translate(144.5,305.96239)"
       d="m 60.5,46.399689 c 0,2.761423 -2.238576,5 -5,5 -2.761424,0 -5,-2.238577 -5,-5 0,-2.761424 2.238576,-5 5,-5 2.761424,0 5,2.238576 5,5 z"
       sodipodi:ry="5"
       sodipodi:rx="5"
       sodipodi:cy="46.399689"
       sodipodi:cx="55.5"
       id="path3151"
       style="fill:#000000;stroke:#000000;stroke-width:1;stroke-miterlimit:4;stroke-dasharray:none"
       sodipodi:type="arc" />
    <path
       sodipodi:type="arc"
       style="fill:#000000;stroke:#000000;stroke-width:1;stroke-miterlimit:4;stroke-dasharray:none"
       id="path3153"
       sodipodi:cx="55.5"
       sodipodi:cy="46.399689"
       sodipodi:rx="5"
       sodipodi:ry="5"
       d="m 60.5,46.399689 c 0,2.761423 -2.238576,5 -5,5 -2.761424,0 -5,-2.238577 -5,-5 0,-2.761424 2.238576,-5 5,-5 2.761424,0 5,2.238576 5,5 z"
       transform="translate(194.5,305.96239)" />
    <path
       transform="translate(244.5,305.96239)"
       d="m 60.5,46.399689 c 0,2.761423 -2.238576,5 -5,5 -2.761424,0 -5,-2.238577 -5,-5 0,-2.761424 2.238576,-5 5,-5 2.761424,0 5,2.238576 5,5 z"
       sodipodi:ry="5"
       sodipodi:rx="5"
       sodipodi:cy="46.399689"
       sodipodi:cx="55.5"
       id="path3155"
       style="fill:#000000;stroke:#000000;stroke-width:1;stroke-miterlimit:4;stroke-dasharray:none"
       sodipodi:type="arc" />
    <path
       sodipodi:type="arc"
       style="fill:#000000;stroke:#000000;stroke-width:1;stroke-miterlimit:4;stroke-dasharray:none"
       id="path3157"
       sodipodi:cx="55.5"
       sodipodi:cy="46.399689"
       sodipodi:rx="5"
       sodipodi:ry="5"
       d="m 60.5,46.399689 c 0,2.761423 -2.238576,5 -5,5 -2.761424,0 -5,-2.238577 -5,-5 0,-2.761424 2.238576,-5 5,-5 2.761424,0 5,2.238576 5,5 z"
       transform="translate(294.5,305.96239)" />
    <path
       transform="translate(94.5,355.96239)"
       d="m 60.5,46.399689 c 0,2.761423 -2.238576,5 -5,5 -2.761424,0 -5,-2.238577 -5,-5 0,-2.761424 2.238576,-5 5,-5 2.761424,0 5,2.238576 5,5 z"
       sodipodi:ry="5"
       sodipodi:rx="5"
       sodipodi:cy="46.399689"
       sodipodi:cx="55.5"
       id="path3159"
       style="fill:#000000;stroke:#000000;stroke-width:1;stroke-miterlimit:4;stroke-dasharray:none"
       sodipodi:type="arc" />
    <path
       sodipodi:type="arc"
       style="fill:#000000;stroke:#000000;stroke-width:1;stroke-miterlimit:4;stroke-dasharray:none"
       id="path3161"
       sodipodi:cx="55.5"
       sodipodi:cy="46.399689"
       sodipodi:rx="5"
       sodipodi:ry="5"
       d="m 60.5,46.399689 c 0,2.761423 -2.238576,5 -5,5 -2.761424,0 -5,-2.238577 -5,-5 0,-2.761424 2.238576,-5 5,-5 2.761424,0 5,2.238576 5,5 z"
       transform="translate(144.5,355.96239)" />
    <path
       transform="translate(194.5,355.96239)"
       d="m 60.5,46.399689 c 0,2.761423 -2.238576,5 -5,5 -2.761424,0 -5,-2.238577 -5,-5 0,-2.761424 2.238576,-5 5,-5 2.761424,0 5,2.238576 5,5 z"
       sodipodi:ry="5"
       sodipodi:rx="5"
       sodipodi:cy="46.399689"
       sodipodi:cx="55.5"
       id="path3163"
       style="fill:#000000;stroke:#000000;stroke-width:1;stroke-miterlimit:4;stroke-dasharray:none"
       sodipodi:type="arc" />
    <path
       sodipodi:type="arc"
       style="fill:#000000;stroke:#000000;stroke-width:1;stroke-miterlimit:4;stroke-dasharray:none"
       id="path3165"
       sodipodi:cx="55.5"
       sodipodi:cy="46.399689"
       sodipodi:rx="5"
       sodipodi:ry="5"
       d="m 60.5,46.399689 c 0,2.761423 -2.238576,5 -5,5 -2.761424,0 -5,-2.238577 -5,-5 0,-2.761424 2.238576,-5 5,-5 2.761424,0 5,2.238576 5,5 z"
       transform="translate(244.5,355.96239)" />
    <path
       transform="translate(294.5,355.96239)"
       d="m 60.5,46.399689 c 0,2.761423 -2.238576,5 -5,5 -2.761424,0 -5,-2.238577 -5,-5 0,-2.761424 2.238576,-5 5,-5 2.761424,0 5,2.238576 5,5 z"
       sodipodi:ry="5"
       sodipodi:rx="5"
       sodipodi:cy="46.399689"
       sodipodi:cx="55.5"
       id="path3167"
       style="fill:#000000;stroke:#000000;stroke-width:1;stroke-miterlimit:4;stroke-dasharray:none"
       sodipodi:type="arc" />
    <path
       sodipodi:type="arc"
       style="fill:#000000;stroke:#000000;stroke-width:1;stroke-miterlimit:4;stroke-dasharray:none"
       id="path3169"
       sodipodi:cx="55.5"
       sodipodi:cy="46.399689"
       sodipodi:rx="5"
       sodipodi:ry="5"
       d="m 60.5,46.399689 c 0,2.761423 -2.238576,5 -5,5 -2.761424,0 -5,-2.238577 -5,-5 0,-2.761424 2.238576,-5 5,-5 2.761424,0 5,2.238576 5,5 z"
       transform="translate(94.5,405.96239)" />
    <path
       transform="translate(144.5,405.96239)"
       d="m 60.5,46.399689 c 0,2.761423 -2.238576,5 -5,5 -2.761424,0 -5,-2.238577 -5,-5 0,-2.761424 2.238576,-5 5,-5 2.761424,0 5,2.238576 5,5 z"
       sodipodi:ry="5"
       sodipodi:rx="5"
       sodipodi:cy="46.399689"
       sodipodi:cx="55.5"
       id="path3171"
       style="fill:#000000;stroke:#000000;stroke-width:1;stroke-miterlimit:4;stroke-dasharray:none"
       sodipodi:type="arc" />
    <path
       sodipodi:type="arc"
       style="fill:#000000;stroke:#000000;stroke-width:1;stroke-miterlimit:4;stroke-dasharray:none"
       id="path3173"
       sodipodi:cx="55.5"
       sodipodi:cy="46.399689"
       sodipodi:rx="5"
       sodipodi:ry="5"
       d="m 60.5,46.399689 c 0,2.761423 -2.238576,5 -5,5 -2.761424,0 -5,-2.238577 -5,-5 0,-2.761424 2.238576,-5 5,-5 2.761424,0 5,2.238576 5,5 z"
       transform="translate(194.5,405.96239)" />
    <path
       transform="translate(244.5,405.96239)"
       d="m 60.5,46.399689 c 0,2.761423 -2.238576,5 -5,5 -2.761424,0 -5,-2.238577 -5,-5 0,-2.761424 2.238576,-5 5,-5 2.761424,0 5,2.238576 5,5 z"
       sodipodi:ry="5"
       sodipodi:rx="5"
       sodipodi:cy="46.399689"
       sodipodi:cx="55.5"
       id="path3175"
       style="fill:#000000;stroke:#000000;stroke-width:1;stroke-miterlimit:4;stroke-dasharray:none"
       sodipodi:type="arc" />
    <path
       sodipodi:type="arc"
       style="fill:#000000;stroke:#000000;stroke-width:1;stroke-miterlimit:4;stroke-dasharray:none"
       id="path3177"
       sodipodi:cx="55.5"
       sodipodi:cy="46.399689"
       sodipodi:rx="5"
       sodipodi:ry="5"
       d="m 60.5,46.399689 c 0,2.761423 -2.238576,5 -5,5 -2.761424,0 -5,-2.238577 -5,-5 0,-2.761424 2.238576,-5 5,-5 2.761424,0 5,2.238576 5,5 z"
       transform="translate(294.5,405.96239)" />
    <text
       xml:space="preserve"
       style="font-size:10px;font-style:normal;font-weight:normal;line-height:125%;letter-spacing:0px;word-spacing:0px;fill:#000000;fill-opacity:1;stroke:none;font-family:Times New Roman;-inkscape-font-specification:Times New Roman"
       x="138.02417"
       y="466.02124"
       id="text3179"
       sodipodi:linespacing="125%"><tspan
         sodipodi:role="line"
         id="tspan3181"
         x="138.02417"
         y="466.02124">1</tspan></text>
    <text
       xml:space="preserve"
       style="font-size:10px;font-style:normal;font-weight:normal;line-height:125%;letter-spacing:0px;word-spacing:0px;fill:#000000;fill-opacity:1;stroke:none;font-family:Times New Roman;-inkscape-font-specification:Times New Roman"
       x="188.67941"
       y="466.65442"
       id="text3183"
       sodipodi:linespacing="125%"><tspan
         sodipodi:role="line"
         id="tspan3185"
         x="188.67941"
         y="466.65442">2</tspan></text>
    <text
       xml:space="preserve"
       style="font-size:10px;font-style:normal;font-weight:normal;line-height:125%;letter-spacing:0px;word-spacing:0px;fill:#000000;fill-opacity:1;stroke:none;font-family:Times New Roman;-inkscape-font-specification:Times New Roman"
       x="238.38483"
       y="466.65442"
       id="text3187"
       sodipodi:linespacing="125%"><tspan
         sodipodi:role="line"
         id="tspan3189"
         x="238.38483"
         y="466.65442">3</tspan></text>
    <text
       xml:space="preserve"
       style="font-size:10px;font-style:normal;font-weight:normal;line-height:125%;letter-spacing:0px;word-spacing:0px;fill:#000000;fill-opacity:1;stroke:none;font-family:Times New Roman;-inkscape-font-specification:Times New Roman"
       x="287.77368"
       y="466.33783"
       id="text3191"
       sodipodi:linespacing="125%"><tspan
         sodipodi:role="line"
         id="tspan3193"
         x="287.77368"
         y="466.33783">4</tspan></text>
    <text
       xml:space="preserve"
       style="font-size:10px;font-style:normal;font-weight:normal;line-height:125%;letter-spacing:0px;word-spacing:0px;fill:#000000;fill-opacity:1;stroke:none;font-family:Times New Roman;-inkscape-font-specification:Times New Roman"
       x="338.1123"
       y="466.33783"
       id="text3195"
       sodipodi:linespacing="125%"><tspan
         sodipodi:role="line"
         id="tspan3197"
         x="338.1123"
         y="466.33783">5</tspan></text>
    <text
       xml:space="preserve"
       style="font-size:10px;font-style:normal;font-weight:normal;line-height:125%;letter-spacing:0px;word-spacing:0px;fill:#000000;fill-opacity:1;stroke:none;font-family:Times New Roman;-inkscape-font-specification:Times New Roman"
       x="138.02417"
       y="415.99918"
       id="text3199"
       sodipodi:linespacing="125%"><tspan
         sodipodi:role="line"
         id="tspan3201"
         x="138.02417"
         y="415.99918">6</tspan></text>
    <text
       xml:space="preserve"
       style="font-size:10px;font-style:normal;font-weight:normal;line-height:125%;letter-spacing:0px;word-spacing:0px;fill:#000000;fill-opacity:1;stroke:none;font-family:Times New Roman;-inkscape-font-specification:Times New Roman"
       x="188.0462"
       y="416.31577"
       id="text3203"
       sodipodi:linespacing="125%"><tspan
         sodipodi:role="line"
         id="tspan3205"
         x="188.0462"
         y="416.31577">7</tspan></text>
    <text
       xml:space="preserve"
       style="font-size:10px;font-style:normal;font-weight:normal;line-height:125%;letter-spacing:0px;word-spacing:0px;fill:#000000;fill-opacity:1;stroke:none;font-family:Times New Roman;-inkscape-font-specification:Times New Roman"
       x="238.06824"
       y="415.99918"
       id="text3207"
       sodipodi:linespacing="125%"><tspan
         sodipodi:role="line"
         id="tspan3209"
         x="238.06824"
         y="415.99918">8</tspan></text>
    <text
       xml:space="preserve"
       style="font-size:10px;font-style:normal;font-weight:normal;line-height:125%;letter-spacing:0px;word-spacing:0px;fill:#000000;fill-opacity:1;stroke:none;font-family:Times New Roman;-inkscape-font-specification:Times New Roman"
       x="288.72345"
       y="415.68259"
       id="text3211"
       sodipodi:linespacing="125%"><tspan
         sodipodi:role="line"
         id="tspan3213"
         x="288.72345"
         y="415.68259">9</tspan></text>
    <text
       xml:space="preserve"
       style="font-size:10px;font-style:normal;font-weight:normal;line-height:125%;letter-spacing:0px;word-spacing:0px;fill:#000000;fill-opacity:1;stroke:none;font-family:Times New Roman;-inkscape-font-specification:Times New Roman"
       x="338.42889"
       y="415.99918"
       id="text3215"
       sodipodi:linespacing="125%"><tspan
         sodipodi:role="line"
         id="tspan3217"
         x="338.42889"
         y="415.99918">10</tspan></text>
    <text
       xml:space="preserve"
       style="font-size:10px;font-style:normal;font-weight:normal;line-height:125%;letter-spacing:0px;word-spacing:0px;fill:#000000;fill-opacity:1;stroke:none;font-family:Times New Roman;-inkscape-font-specification:Times New Roman"
       x="137.0744"
       y="365.97714"
       id="text3219"
       sodipodi:linespacing="125%"><tspan
         sodipodi:role="line"
         id="tspan3221"
         x="137.0744"
         y="365.97714">11</tspan></text>
    <text
       xml:space="preserve"
       style="font-size:10px;font-style:normal;font-weight:normal;line-height:125%;letter-spacing:0px;word-spacing:0px;fill:#000000;fill-opacity:1;stroke:none;font-family:Times New Roman;-inkscape-font-specification:Times New Roman"
       x="188.0462"
       y="366.29373"
       id="text3223"
       sodipodi:linespacing="125%"><tspan
         sodipodi:role="line"
         id="tspan3225"
         x="188.0462"
         y="366.29373">12</tspan></text>
    <text
       xml:space="preserve"
       style="font-size:10px;font-style:normal;font-weight:normal;line-height:125%;letter-spacing:0px;word-spacing:0px;fill:#000000;fill-opacity:1;stroke:none;font-family:Times New Roman;-inkscape-font-specification:Times New Roman"
       x="238.70142"
       y="365.97714"
       id="text3227"
       sodipodi:linespacing="125%"><tspan
         sodipodi:role="line"
         id="tspan3229"
         x="238.70142"
         y="365.97714">13</tspan></text>
    <text
       xml:space="preserve"
       style="font-size:10px;font-style:normal;font-weight:normal;line-height:125%;letter-spacing:0px;word-spacing:0px;fill:#000000;fill-opacity:1;stroke:none;font-family:Times New Roman;-inkscape-font-specification:Times New Roman"
       x="288.09027"
       y="365.97714"
       id="text3231"
       sodipodi:linespacing="125%"><tspan
         sodipodi:role="line"
         id="tspan3233"
         x="288.09027"
         y="365.97714">14</tspan></text>
    <text
       xml:space="preserve"
       style="font-size:10px;font-style:normal;font-weight:normal;line-height:125%;letter-spacing:0px;word-spacing:0px;fill:#000000;fill-opacity:1;stroke:none;font-family:Times New Roman;-inkscape-font-specification:Times New Roman"
       x="338.1123"
       y="366.29373"
       id="text3235"
       sodipodi:linespacing="125%"><tspan
         sodipodi:role="line"
         id="tspan3237"
         x="338.1123"
         y="366.29373">15</tspan></text>
    <text
       xml:space="preserve"
       style="font-size:10px;font-style:normal;font-weight:normal;line-height:125%;letter-spacing:0px;word-spacing:0px;fill:#000000;fill-opacity:1;stroke:none;font-family:Times New Roman;-inkscape-font-specification:Times New Roman"
       x="138.02417"
       y="316.58829"
       id="text3239"
       sodipodi:linespacing="125%"><tspan
         sodipodi:role="line"
         id="tspan3241"
         x="138.02417"
         y="316.58829">16</tspan></text>
    <text
       xml:space="preserve"
       style="font-size:10px;font-style:normal;font-weight:normal;line-height:125%;letter-spacing:0px;word-spacing:0px;fill:#000000;fill-opacity:1;stroke:none;font-family:Times New Roman;-inkscape-font-specification:Times New Roman"
       x="187.72961"
       y="316.2717"
       id="text3243"
       sodipodi:linespacing="125%"><tspan
         sodipodi:role="line"
         id="tspan3245"
         x="187.72961"
         y="316.2717">17</tspan></text>
    <text
       xml:space="preserve"
       style="font-size:10px;font-style:normal;font-weight:normal;line-height:125%;letter-spacing:0px;word-spacing:0px;fill:#000000;fill-opacity:1;stroke:none;font-family:Times New Roman;-inkscape-font-specification:Times New Roman"
       x="238.38483"
       y="316.2717"
       id="text3247"
       sodipodi:linespacing="125%"><tspan
         sodipodi:role="line"
         id="tspan3249"
         x="238.38483"
         y="316.2717">18</tspan></text>
    <text
       xml:space="preserve"
       style="font-size:10px;font-style:normal;font-weight:normal;line-height:125%;letter-spacing:0px;word-spacing:0px;fill:#000000;fill-opacity:1;stroke:none;font-family:Times New Roman;-inkscape-font-specification:Times New Roman"
       x="287.77368"
       y="316.2717"
       id="text3251"
       sodipodi:linespacing="125%"><tspan
         sodipodi:role="line"
         id="tspan3253"
         x="287.77368"
         y="316.2717">19</tspan></text>
    <text
       xml:space="preserve"
       style="font-size:10px;font-style:normal;font-weight:normal;line-height:125%;letter-spacing:0px;word-spacing:0px;fill:#000000;fill-opacity:1;stroke:none;font-family:Times New Roman;-inkscape-font-specification:Times New Roman"
       x="337.79568"
       y="316.2717"
       id="text3255"
       sodipodi:linespacing="125%"><tspan
         sodipodi:role="line"
         id="tspan3257"
         x="337.79568"
         y="316.2717">20</tspan></text>
    <text
       xml:space="preserve"
       style="font-size:10px;font-style:normal;font-weight:normal;line-height:125%;letter-spacing:0px;word-spacing:0px;fill:#000000;fill-opacity:1;stroke:none;font-family:Times New Roman;-inkscape-font-specification:Times New Roman"
       x="138.02417"
       y="266.24966"
       id="text3259"
       sodipodi:linespacing="125%"><tspan
         sodipodi:role="line"
         id="tspan3261"
         x="138.02417"
         y="266.24966">21</tspan></text>
    <text
       xml:space="preserve"
       style="font-size:10px;font-style:normal;font-weight:normal;line-height:125%;letter-spacing:0px;word-spacing:0px;fill:#000000;fill-opacity:1;stroke:none;font-family:Times New Roman;-inkscape-font-specification:Times New Roman"
       x="187.72961"
       y="266.24966"
       id="text3263"
       sodipodi:linespacing="125%"><tspan
         sodipodi:role="line"
         id="tspan3265"
         x="187.72961"
         y="266.24966">22</tspan></text>
    <text
       xml:space="preserve"
       style="font-size:10px;font-style:normal;font-weight:normal;line-height:125%;letter-spacing:0px;word-spacing:0px;fill:#000000;fill-opacity:1;stroke:none;font-family:Times New Roman;-inkscape-font-specification:Times New Roman"
       x="237.75165"
       y="266.56625"
       id="text3267"
       sodipodi:linespacing="125%"><tspan
         sodipodi:role="line"
         id="tspan3269"
         x="237.75165"
         y="266.56625">23</tspan></text>
    <text
       xml:space="preserve"
       style="font-size:10px;font-style:normal;font-weight:normal;line-height:125%;letter-spacing:0px;word-spacing:0px;fill:#000000;fill-opacity:1;stroke:none;font-family:Times New Roman;-inkscape-font-specification:Times New Roman"
       x="288.09027"
       y="266.24966"
       id="text3271"
       sodipodi:linespacing="125%"><tspan
         sodipodi:role="line"
         id="tspan3273"
         x="288.09027"
         y="266.24966">24</tspan></text>
    <text
       xml:space="preserve"
       style="font-size:10px;font-style:normal;font-weight:normal;line-height:125%;letter-spacing:0px;word-spacing:0px;fill:#000000;fill-opacity:1;stroke:none;font-family:Times New Roman;-inkscape-font-specification:Times New Roman"
       x="338.42889"
       y="266.24966"
       id="text3275"
       sodipodi:linespacing="125%"><tspan
         sodipodi:role="line"
         id="tspan3277"
         x="338.42889"
         y="266.24966">25</tspan></text>
  </g>
</svg>
